G04 #@! TF.FileFunction,Soldermask,Bot*
%FSLAX46Y46*%
G04 Gerber Fmt 4.6, Leading zero omitted, Abs format (unit mm)*
G04 Created by KiCad (PCBNEW 4.0.7) date Fri Jul 20 16:32:02 2018*
%MOMM*%
%LPD*%
G01*
G04 APERTURE LIST*
%ADD10C,0.100000*%
%ADD11R,2.100000X2.100000*%
%ADD12O,2.100000X2.100000*%
%ADD13C,3.600000*%
G04 APERTURE END LIST*
D10*
D11*
X118110000Y-60960000D03*
D12*
X118110000Y-58420000D03*
X120650000Y-60960000D03*
X120650000Y-58420000D03*
X123190000Y-60960000D03*
X123190000Y-58420000D03*
X125730000Y-60960000D03*
X125730000Y-58420000D03*
X128270000Y-60960000D03*
X128270000Y-58420000D03*
X130810000Y-60960000D03*
X130810000Y-58420000D03*
X133350000Y-60960000D03*
X133350000Y-58420000D03*
X135890000Y-60960000D03*
X135890000Y-58420000D03*
X138430000Y-60960000D03*
X138430000Y-58420000D03*
X140970000Y-60960000D03*
X140970000Y-58420000D03*
X143510000Y-60960000D03*
X143510000Y-58420000D03*
X146050000Y-60960000D03*
X146050000Y-58420000D03*
X148590000Y-60960000D03*
X148590000Y-58420000D03*
X151130000Y-60960000D03*
X151130000Y-58420000D03*
X153670000Y-60960000D03*
X153670000Y-58420000D03*
X156210000Y-60960000D03*
X156210000Y-58420000D03*
X158750000Y-60960000D03*
X158750000Y-58420000D03*
X161290000Y-60960000D03*
X161290000Y-58420000D03*
X163830000Y-60960000D03*
X163830000Y-58420000D03*
X166370000Y-60960000D03*
X166370000Y-58420000D03*
X168910000Y-60960000D03*
X168910000Y-58420000D03*
X171450000Y-60960000D03*
X171450000Y-58420000D03*
X173990000Y-60960000D03*
X173990000Y-58420000D03*
X176530000Y-60960000D03*
X176530000Y-58420000D03*
X179070000Y-60960000D03*
X179070000Y-58420000D03*
X181610000Y-60960000D03*
X181610000Y-58420000D03*
D11*
X118110000Y-55879995D03*
D12*
X118110000Y-53339995D03*
X120650000Y-55879995D03*
X120650000Y-53339995D03*
X123190000Y-55879995D03*
X123190000Y-53339995D03*
X125730000Y-55879995D03*
X125730000Y-53339995D03*
X128270000Y-55879995D03*
X128270000Y-53339995D03*
X130810000Y-55879995D03*
X130810000Y-53339995D03*
X133350000Y-55879995D03*
X133350000Y-53339995D03*
X135890000Y-55879995D03*
X135890000Y-53339995D03*
X138430000Y-55879995D03*
X138430000Y-53339995D03*
X140970000Y-55879995D03*
X140970000Y-53339995D03*
X143510000Y-55879995D03*
X143510000Y-53339995D03*
X146050000Y-55879995D03*
X146050000Y-53339995D03*
X148590000Y-55879995D03*
X148590000Y-53339995D03*
X151130000Y-55879995D03*
X151130000Y-53339995D03*
X153670000Y-55879995D03*
X153670000Y-53339995D03*
X156210000Y-55879995D03*
X156210000Y-53339995D03*
X158750000Y-55879995D03*
X158750000Y-53339995D03*
X161290000Y-55879995D03*
X161290000Y-53339995D03*
X163830000Y-55879995D03*
X163830000Y-53339995D03*
X166370000Y-55879995D03*
X166370000Y-53339995D03*
X168910000Y-55879995D03*
X168910000Y-53339995D03*
X171450000Y-55879995D03*
X171450000Y-53339995D03*
X173990000Y-55879995D03*
X173990000Y-53339995D03*
X176530000Y-55879995D03*
X176530000Y-53339995D03*
X179070000Y-55879995D03*
X179070000Y-53339995D03*
X181610000Y-55879995D03*
X181610000Y-53339995D03*
D11*
X112268000Y-113284000D03*
D12*
X112268000Y-110744000D03*
D13*
X113030000Y-53340000D03*
X186690000Y-53340000D03*
X109220000Y-139070000D03*
X189230000Y-139070000D03*
D11*
X112268000Y-125984000D03*
D12*
X112268000Y-123444000D03*
M02*
