G04 #@! TF.GenerationSoftware,KiCad,Pcbnew,5.0.0*
G04 #@! TF.CreationDate,2018-07-30T09:59:34-05:00*
G04 #@! TF.ProjectId,PowerBoard,506F776572426F6172642E6B69636164,rev?*
G04 #@! TF.SameCoordinates,Original*
G04 #@! TF.FileFunction,Paste,Top*
G04 #@! TF.FilePolarity,Positive*
%FSLAX46Y46*%
G04 Gerber Fmt 4.6, Leading zero omitted, Abs format (unit mm)*
G04 Created by KiCad (PCBNEW 5.0.0) date Mon Jul 30 09:59:34 2018*
%MOMM*%
%LPD*%
G01*
G04 APERTURE LIST*
%ADD10R,4.000000X2.500000*%
%ADD11R,1.000000X1.250000*%
%ADD12R,3.300000X2.500000*%
%ADD13R,1.200000X1.200000*%
%ADD14R,0.700000X1.300000*%
%ADD15R,1.550000X0.600000*%
%ADD16R,0.720000X0.960000*%
%ADD17R,0.375000X0.500000*%
%ADD18R,0.300000X0.650000*%
G04 APERTURE END LIST*
D10*
G04 #@! TO.C,C1*
X152906000Y-70104000D03*
X159006000Y-70104000D03*
G04 #@! TD*
D11*
G04 #@! TO.C,C2*
X151908000Y-78232000D03*
X153908000Y-78232000D03*
G04 #@! TD*
G04 #@! TO.C,C3*
X163084000Y-88900000D03*
X165084000Y-88900000D03*
G04 #@! TD*
G04 #@! TO.C,C4*
X153908000Y-82804000D03*
X151908000Y-82804000D03*
G04 #@! TD*
G04 #@! TO.C,C5*
X156988000Y-85852000D03*
X158988000Y-85852000D03*
G04 #@! TD*
G04 #@! TO.C,C6*
X132096000Y-90424000D03*
X134096000Y-90424000D03*
G04 #@! TD*
G04 #@! TO.C,C7*
X142224000Y-78232000D03*
X140224000Y-78232000D03*
G04 #@! TD*
D10*
G04 #@! TO.C,C8*
X142242000Y-70104000D03*
X136142000Y-70104000D03*
G04 #@! TD*
D12*
G04 #@! TO.C,D1*
X133096000Y-78896000D03*
X133096000Y-85696000D03*
G04 #@! TD*
D13*
G04 #@! TO.C,D2*
X122344000Y-106680000D03*
X124544000Y-106680000D03*
G04 #@! TD*
D14*
G04 #@! TO.C,L1*
X147762000Y-81788000D03*
X145862000Y-81788000D03*
G04 #@! TD*
G04 #@! TO.C,R1*
X132146000Y-93980000D03*
X134046000Y-93980000D03*
G04 #@! TD*
G04 #@! TO.C,R2*
X134046000Y-97536000D03*
X132146000Y-97536000D03*
G04 #@! TD*
G04 #@! TO.C,R3*
X157038000Y-88900000D03*
X158938000Y-88900000D03*
G04 #@! TD*
G04 #@! TO.C,R4*
X123886000Y-109728000D03*
X121986000Y-109728000D03*
G04 #@! TD*
D15*
G04 #@! TO.C,U1*
X149004000Y-89789000D03*
X149004000Y-88519000D03*
X149004000Y-87249000D03*
X149004000Y-85979000D03*
X143604000Y-85979000D03*
X143604000Y-87249000D03*
X143604000Y-88519000D03*
X143604000Y-89789000D03*
D16*
X145704000Y-87084000D03*
X145704000Y-88684000D03*
X146904000Y-87084000D03*
X146904000Y-88684000D03*
G04 #@! TD*
D17*
G04 #@! TO.C,Q1*
X124489500Y-114974000D03*
X123414500Y-114974000D03*
D18*
X123952000Y-116749000D03*
X123952000Y-114899000D03*
D17*
X123414500Y-116674000D03*
X124489500Y-116674000D03*
G04 #@! TD*
D13*
G04 #@! TO.C,D3*
X122661500Y-122237500D03*
X124861500Y-122237500D03*
G04 #@! TD*
D17*
G04 #@! TO.C,Q2*
X123029000Y-129388500D03*
X121954000Y-129388500D03*
D18*
X122491500Y-131163500D03*
X122491500Y-129313500D03*
D17*
X121954000Y-131088500D03*
X123029000Y-131088500D03*
G04 #@! TD*
D14*
G04 #@! TO.C,R5*
X124394000Y-125158500D03*
X122494000Y-125158500D03*
G04 #@! TD*
M02*
