M48
;DRILL file {KiCad 5.0.0} date Sat Jul 28 18:10:49 2018
;FORMAT={-:-/ absolute / inch / decimal}
FMAT,2
INCH,TZ
T1C0.0170
T2C0.0394
%
G90
G05
M72
T1
X5.4Y-2.
X5.862Y-2.508
X5.94Y-3.36
X5.964Y-3.478
X6.1Y-3.38
T2
X4.65Y-2.3
X4.65Y-2.4
X4.75Y-2.3
X4.75Y-2.4
X4.85Y-2.3
X4.85Y-2.4
X4.95Y-2.3
X4.95Y-2.4
X5.05Y-2.3
X5.05Y-2.4
X5.15Y-2.3
X5.15Y-2.4
X5.25Y-2.3
X5.25Y-2.4
X5.35Y-2.3
X5.35Y-2.4
X5.45Y-2.3
X5.45Y-2.4
X5.55Y-2.3
X5.55Y-2.4
X5.65Y-2.3
X5.65Y-2.4
X5.75Y-2.3
X5.75Y-2.4
X5.85Y-2.3
X5.85Y-2.4
X5.95Y-2.3
X5.95Y-2.4
X6.05Y-2.3
X6.05Y-2.4
X6.15Y-2.3
X6.15Y-2.4
X6.25Y-2.3
X6.25Y-2.4
X6.35Y-2.3
X6.35Y-2.4
X6.45Y-2.3
X6.45Y-2.4
X6.55Y-2.3
X6.55Y-2.4
X6.65Y-2.3
X6.65Y-2.4
X6.75Y-2.3
X6.75Y-2.4
X6.85Y-2.3
X6.85Y-2.4
X6.95Y-2.3
X6.95Y-2.4
X7.05Y-2.3
X7.05Y-2.4
X7.15Y-2.3
X7.15Y-2.4
X4.65Y-2.1
X4.65Y-2.2
X4.75Y-2.1
X4.75Y-2.2
X4.85Y-2.1
X4.85Y-2.2
X4.95Y-2.1
X4.95Y-2.2
X5.05Y-2.1
X5.05Y-2.2
X5.15Y-2.1
X5.15Y-2.2
X5.25Y-2.1
X5.25Y-2.2
X5.35Y-2.1
X5.35Y-2.2
X5.45Y-2.1
X5.45Y-2.2
X5.55Y-2.1
X5.55Y-2.2
X5.65Y-2.1
X5.65Y-2.2
X5.75Y-2.1
X5.75Y-2.2
X5.85Y-2.1
X5.85Y-2.2
X5.95Y-2.1
X5.95Y-2.2
X6.05Y-2.1
X6.05Y-2.2
X6.15Y-2.1
X6.15Y-2.2
X6.25Y-2.1
X6.25Y-2.2
X6.35Y-2.1
X6.35Y-2.2
X6.45Y-2.1
X6.45Y-2.2
X6.55Y-2.1
X6.55Y-2.2
X6.65Y-2.1
X6.65Y-2.2
X6.75Y-2.1
X6.75Y-2.2
X6.85Y-2.1
X6.85Y-2.2
X6.95Y-2.1
X6.95Y-2.2
X7.05Y-2.1
X7.05Y-2.2
X7.15Y-2.1
X7.15Y-2.2
X7.076Y-3.752
X7.076Y-3.852
X4.42Y-4.36
X4.42Y-4.46
X4.42Y-4.86
X4.42Y-4.96
T0
M30
