G04 #@! TF.FileFunction,Legend,Top*
%FSLAX46Y46*%
G04 Gerber Fmt 4.6, Leading zero omitted, Abs format (unit mm)*
G04 Created by KiCad (PCBNEW 4.0.7) date Sun Jul  1 21:42:18 2018*
%MOMM*%
%LPD*%
G01*
G04 APERTURE LIST*
%ADD10C,0.100000*%
%ADD11C,0.300000*%
%ADD12C,0.120000*%
%ADD13C,0.150000*%
G04 APERTURE END LIST*
D10*
D11*
X127790496Y-138967257D02*
X127671448Y-139086305D01*
X127314305Y-139205352D01*
X127076210Y-139205352D01*
X126719067Y-139086305D01*
X126480972Y-138848210D01*
X126361924Y-138610114D01*
X126242876Y-138133924D01*
X126242876Y-137776781D01*
X126361924Y-137300590D01*
X126480972Y-137062495D01*
X126719067Y-136824400D01*
X127076210Y-136705352D01*
X127314305Y-136705352D01*
X127671448Y-136824400D01*
X127790496Y-136943448D01*
X128623829Y-137538686D02*
X129219067Y-139205352D01*
X129814305Y-137538686D02*
X129219067Y-139205352D01*
X128980972Y-139800590D01*
X128861924Y-139919638D01*
X128623829Y-140038686D01*
X130647638Y-139086305D02*
X131004781Y-139205352D01*
X131600019Y-139205352D01*
X131838115Y-139086305D01*
X131957162Y-138967257D01*
X132076210Y-138729162D01*
X132076210Y-138491067D01*
X131957162Y-138252971D01*
X131838115Y-138133924D01*
X131600019Y-138014876D01*
X131123829Y-137895829D01*
X130885734Y-137776781D01*
X130766686Y-137657733D01*
X130647638Y-137419638D01*
X130647638Y-137181543D01*
X130766686Y-136943448D01*
X130885734Y-136824400D01*
X131123829Y-136705352D01*
X131719067Y-136705352D01*
X132076210Y-136824400D01*
X134219067Y-139205352D02*
X134219067Y-137895829D01*
X134100019Y-137657733D01*
X133861924Y-137538686D01*
X133385733Y-137538686D01*
X133147638Y-137657733D01*
X134219067Y-139086305D02*
X133980971Y-139205352D01*
X133385733Y-139205352D01*
X133147638Y-139086305D01*
X133028590Y-138848210D01*
X133028590Y-138610114D01*
X133147638Y-138372019D01*
X133385733Y-138252971D01*
X133980971Y-138252971D01*
X134219067Y-138133924D01*
X135052400Y-137538686D02*
X136004781Y-137538686D01*
X135409543Y-136705352D02*
X135409543Y-138848210D01*
X135528591Y-139086305D01*
X135766686Y-139205352D01*
X136004781Y-139205352D01*
X140052400Y-139205352D02*
X138623828Y-139205352D01*
X139338114Y-139205352D02*
X139338114Y-136705352D01*
X139100019Y-137062495D01*
X138861924Y-137300590D01*
X138623828Y-137419638D01*
X143028590Y-138252971D02*
X144933352Y-138252971D01*
X148028590Y-139205352D02*
X148028590Y-136705352D01*
X148980971Y-136705352D01*
X149219066Y-136824400D01*
X149338114Y-136943448D01*
X149457162Y-137181543D01*
X149457162Y-137538686D01*
X149338114Y-137776781D01*
X149219066Y-137895829D01*
X148980971Y-138014876D01*
X148028590Y-138014876D01*
X150885733Y-139205352D02*
X150647638Y-139086305D01*
X150528590Y-138967257D01*
X150409542Y-138729162D01*
X150409542Y-138014876D01*
X150528590Y-137776781D01*
X150647638Y-137657733D01*
X150885733Y-137538686D01*
X151242876Y-137538686D01*
X151480971Y-137657733D01*
X151600019Y-137776781D01*
X151719066Y-138014876D01*
X151719066Y-138729162D01*
X151600019Y-138967257D01*
X151480971Y-139086305D01*
X151242876Y-139205352D01*
X150885733Y-139205352D01*
X152552400Y-137538686D02*
X153028590Y-139205352D01*
X153504781Y-138014876D01*
X153980971Y-139205352D01*
X154457162Y-137538686D01*
X156361924Y-139086305D02*
X156123829Y-139205352D01*
X155647638Y-139205352D01*
X155409543Y-139086305D01*
X155290495Y-138848210D01*
X155290495Y-137895829D01*
X155409543Y-137657733D01*
X155647638Y-137538686D01*
X156123829Y-137538686D01*
X156361924Y-137657733D01*
X156480972Y-137895829D01*
X156480972Y-138133924D01*
X155290495Y-138372019D01*
X157552400Y-139205352D02*
X157552400Y-137538686D01*
X157552400Y-138014876D02*
X157671448Y-137776781D01*
X157790495Y-137657733D01*
X158028591Y-137538686D01*
X158266686Y-137538686D01*
X161838114Y-137895829D02*
X162195257Y-138014876D01*
X162314305Y-138133924D01*
X162433353Y-138372019D01*
X162433353Y-138729162D01*
X162314305Y-138967257D01*
X162195257Y-139086305D01*
X161957162Y-139205352D01*
X161004781Y-139205352D01*
X161004781Y-136705352D01*
X161838114Y-136705352D01*
X162076210Y-136824400D01*
X162195257Y-136943448D01*
X162314305Y-137181543D01*
X162314305Y-137419638D01*
X162195257Y-137657733D01*
X162076210Y-137776781D01*
X161838114Y-137895829D01*
X161004781Y-137895829D01*
X163861924Y-139205352D02*
X163623829Y-139086305D01*
X163504781Y-138967257D01*
X163385733Y-138729162D01*
X163385733Y-138014876D01*
X163504781Y-137776781D01*
X163623829Y-137657733D01*
X163861924Y-137538686D01*
X164219067Y-137538686D01*
X164457162Y-137657733D01*
X164576210Y-137776781D01*
X164695257Y-138014876D01*
X164695257Y-138729162D01*
X164576210Y-138967257D01*
X164457162Y-139086305D01*
X164219067Y-139205352D01*
X163861924Y-139205352D01*
X166838115Y-139205352D02*
X166838115Y-137895829D01*
X166719067Y-137657733D01*
X166480972Y-137538686D01*
X166004781Y-137538686D01*
X165766686Y-137657733D01*
X166838115Y-139086305D02*
X166600019Y-139205352D01*
X166004781Y-139205352D01*
X165766686Y-139086305D01*
X165647638Y-138848210D01*
X165647638Y-138610114D01*
X165766686Y-138372019D01*
X166004781Y-138252971D01*
X166600019Y-138252971D01*
X166838115Y-138133924D01*
X168028591Y-139205352D02*
X168028591Y-137538686D01*
X168028591Y-138014876D02*
X168147639Y-137776781D01*
X168266686Y-137657733D01*
X168504782Y-137538686D01*
X168742877Y-137538686D01*
X170647639Y-139205352D02*
X170647639Y-136705352D01*
X170647639Y-139086305D02*
X170409543Y-139205352D01*
X169933353Y-139205352D01*
X169695258Y-139086305D01*
X169576210Y-138967257D01*
X169457162Y-138729162D01*
X169457162Y-138014876D01*
X169576210Y-137776781D01*
X169695258Y-137657733D01*
X169933353Y-137538686D01*
X170409543Y-137538686D01*
X170647639Y-137657733D01*
X175409544Y-137538686D02*
X176004782Y-139205352D01*
X176600020Y-137538686D01*
X178861925Y-139205352D02*
X177433353Y-139205352D01*
X178147639Y-139205352D02*
X178147639Y-136705352D01*
X177909544Y-137062495D01*
X177671449Y-137300590D01*
X177433353Y-137419638D01*
D12*
X151766000Y-73534000D02*
X151766000Y-71614000D01*
X151766000Y-66674000D02*
X151766000Y-68594000D01*
X160146000Y-74294000D02*
X160146000Y-71614000D01*
X160146000Y-65914000D02*
X160146000Y-68594000D01*
X160146000Y-74294000D02*
X152526000Y-74294000D01*
X152526000Y-74294000D02*
X151766000Y-73534000D01*
X151766000Y-66674000D02*
X152526000Y-65914000D01*
X152526000Y-65914000D02*
X160146000Y-65914000D01*
X153408000Y-77382000D02*
X152408000Y-77382000D01*
X152408000Y-79082000D02*
X153408000Y-79082000D01*
X164584000Y-88050000D02*
X163584000Y-88050000D01*
X163584000Y-89750000D02*
X164584000Y-89750000D01*
X152408000Y-83654000D02*
X153408000Y-83654000D01*
X153408000Y-81954000D02*
X152408000Y-81954000D01*
X158488000Y-85002000D02*
X157488000Y-85002000D01*
X157488000Y-86702000D02*
X158488000Y-86702000D01*
X133596000Y-89574000D02*
X132596000Y-89574000D01*
X132596000Y-91274000D02*
X133596000Y-91274000D01*
X140724000Y-79082000D02*
X141724000Y-79082000D01*
X141724000Y-77382000D02*
X140724000Y-77382000D01*
X135002000Y-65914000D02*
X135002000Y-68594000D01*
X135002000Y-74294000D02*
X135002000Y-71614000D01*
X143382000Y-73534000D02*
X143382000Y-71614000D01*
X143382000Y-66674000D02*
X143382000Y-68594000D01*
X135002000Y-65914000D02*
X142622000Y-65914000D01*
X142622000Y-65914000D02*
X143382000Y-66674000D01*
X143382000Y-73534000D02*
X142622000Y-74294000D01*
X142622000Y-74294000D02*
X135002000Y-74294000D01*
X129846000Y-77496000D02*
X136346000Y-77496000D01*
X129846000Y-77496000D02*
X129846000Y-85896000D01*
X136346000Y-77496000D02*
X136346000Y-85896000D01*
X125244000Y-107380000D02*
X125244000Y-105980000D01*
X125244000Y-105980000D02*
X122444000Y-105980000D01*
X125244000Y-107380000D02*
X122444000Y-107380000D01*
X113598000Y-109414000D02*
X110938000Y-109414000D01*
X113598000Y-112014000D02*
X113598000Y-109414000D01*
X110938000Y-112014000D02*
X110938000Y-109414000D01*
X113598000Y-112014000D02*
X110938000Y-112014000D01*
X113598000Y-113284000D02*
X113598000Y-114614000D01*
X113598000Y-114614000D02*
X112268000Y-114614000D01*
X146212000Y-80908000D02*
X147412000Y-80908000D01*
X147412000Y-82668000D02*
X146212000Y-82668000D01*
X133696000Y-94860000D02*
X132496000Y-94860000D01*
X132496000Y-93100000D02*
X133696000Y-93100000D01*
X132496000Y-96656000D02*
X133696000Y-96656000D01*
X133696000Y-98416000D02*
X132496000Y-98416000D01*
X158588000Y-89780000D02*
X157388000Y-89780000D01*
X157388000Y-88020000D02*
X158588000Y-88020000D01*
X122336000Y-108848000D02*
X123536000Y-108848000D01*
X123536000Y-110608000D02*
X122336000Y-110608000D01*
D13*
X148379000Y-90459000D02*
X148379000Y-90409000D01*
X144229000Y-90459000D02*
X144229000Y-90314000D01*
X144229000Y-85309000D02*
X144229000Y-85454000D01*
X148379000Y-85309000D02*
X148379000Y-85454000D01*
X148379000Y-90459000D02*
X144229000Y-90459000D01*
X148379000Y-85309000D02*
X144229000Y-85309000D01*
X148379000Y-90409000D02*
X149779000Y-90409000D01*
D12*
X124852000Y-116624000D02*
X124852000Y-114724000D01*
X123052000Y-115024000D02*
X123052000Y-116624000D01*
D13*
X155789334Y-75911143D02*
X155741715Y-75958762D01*
X155598858Y-76006381D01*
X155503620Y-76006381D01*
X155360762Y-75958762D01*
X155265524Y-75863524D01*
X155217905Y-75768286D01*
X155170286Y-75577810D01*
X155170286Y-75434952D01*
X155217905Y-75244476D01*
X155265524Y-75149238D01*
X155360762Y-75054000D01*
X155503620Y-75006381D01*
X155598858Y-75006381D01*
X155741715Y-75054000D01*
X155789334Y-75101619D01*
X156741715Y-76006381D02*
X156170286Y-76006381D01*
X156456000Y-76006381D02*
X156456000Y-75006381D01*
X156360762Y-75149238D01*
X156265524Y-75244476D01*
X156170286Y-75292095D01*
X150795048Y-74085429D02*
X151556953Y-74085429D01*
X151176001Y-74466381D02*
X151176001Y-73704476D01*
X152741334Y-77089143D02*
X152693715Y-77136762D01*
X152550858Y-77184381D01*
X152455620Y-77184381D01*
X152312762Y-77136762D01*
X152217524Y-77041524D01*
X152169905Y-76946286D01*
X152122286Y-76755810D01*
X152122286Y-76612952D01*
X152169905Y-76422476D01*
X152217524Y-76327238D01*
X152312762Y-76232000D01*
X152455620Y-76184381D01*
X152550858Y-76184381D01*
X152693715Y-76232000D01*
X152741334Y-76279619D01*
X153122286Y-76279619D02*
X153169905Y-76232000D01*
X153265143Y-76184381D01*
X153503239Y-76184381D01*
X153598477Y-76232000D01*
X153646096Y-76279619D01*
X153693715Y-76374857D01*
X153693715Y-76470095D01*
X153646096Y-76612952D01*
X153074667Y-77184381D01*
X153693715Y-77184381D01*
X163917334Y-87757143D02*
X163869715Y-87804762D01*
X163726858Y-87852381D01*
X163631620Y-87852381D01*
X163488762Y-87804762D01*
X163393524Y-87709524D01*
X163345905Y-87614286D01*
X163298286Y-87423810D01*
X163298286Y-87280952D01*
X163345905Y-87090476D01*
X163393524Y-86995238D01*
X163488762Y-86900000D01*
X163631620Y-86852381D01*
X163726858Y-86852381D01*
X163869715Y-86900000D01*
X163917334Y-86947619D01*
X164250667Y-86852381D02*
X164869715Y-86852381D01*
X164536381Y-87233333D01*
X164679239Y-87233333D01*
X164774477Y-87280952D01*
X164822096Y-87328571D01*
X164869715Y-87423810D01*
X164869715Y-87661905D01*
X164822096Y-87757143D01*
X164774477Y-87804762D01*
X164679239Y-87852381D01*
X164393524Y-87852381D01*
X164298286Y-87804762D01*
X164250667Y-87757143D01*
X152741334Y-84661143D02*
X152693715Y-84708762D01*
X152550858Y-84756381D01*
X152455620Y-84756381D01*
X152312762Y-84708762D01*
X152217524Y-84613524D01*
X152169905Y-84518286D01*
X152122286Y-84327810D01*
X152122286Y-84184952D01*
X152169905Y-83994476D01*
X152217524Y-83899238D01*
X152312762Y-83804000D01*
X152455620Y-83756381D01*
X152550858Y-83756381D01*
X152693715Y-83804000D01*
X152741334Y-83851619D01*
X153598477Y-84089714D02*
X153598477Y-84756381D01*
X153360381Y-83708762D02*
X153122286Y-84423048D01*
X153741334Y-84423048D01*
X157821334Y-84709143D02*
X157773715Y-84756762D01*
X157630858Y-84804381D01*
X157535620Y-84804381D01*
X157392762Y-84756762D01*
X157297524Y-84661524D01*
X157249905Y-84566286D01*
X157202286Y-84375810D01*
X157202286Y-84232952D01*
X157249905Y-84042476D01*
X157297524Y-83947238D01*
X157392762Y-83852000D01*
X157535620Y-83804381D01*
X157630858Y-83804381D01*
X157773715Y-83852000D01*
X157821334Y-83899619D01*
X158726096Y-83804381D02*
X158249905Y-83804381D01*
X158202286Y-84280571D01*
X158249905Y-84232952D01*
X158345143Y-84185333D01*
X158583239Y-84185333D01*
X158678477Y-84232952D01*
X158726096Y-84280571D01*
X158773715Y-84375810D01*
X158773715Y-84613905D01*
X158726096Y-84709143D01*
X158678477Y-84756762D01*
X158583239Y-84804381D01*
X158345143Y-84804381D01*
X158249905Y-84756762D01*
X158202286Y-84709143D01*
X132929334Y-89281143D02*
X132881715Y-89328762D01*
X132738858Y-89376381D01*
X132643620Y-89376381D01*
X132500762Y-89328762D01*
X132405524Y-89233524D01*
X132357905Y-89138286D01*
X132310286Y-88947810D01*
X132310286Y-88804952D01*
X132357905Y-88614476D01*
X132405524Y-88519238D01*
X132500762Y-88424000D01*
X132643620Y-88376381D01*
X132738858Y-88376381D01*
X132881715Y-88424000D01*
X132929334Y-88471619D01*
X133786477Y-88376381D02*
X133596000Y-88376381D01*
X133500762Y-88424000D01*
X133453143Y-88471619D01*
X133357905Y-88614476D01*
X133310286Y-88804952D01*
X133310286Y-89185905D01*
X133357905Y-89281143D01*
X133405524Y-89328762D01*
X133500762Y-89376381D01*
X133691239Y-89376381D01*
X133786477Y-89328762D01*
X133834096Y-89281143D01*
X133881715Y-89185905D01*
X133881715Y-88947810D01*
X133834096Y-88852571D01*
X133786477Y-88804952D01*
X133691239Y-88757333D01*
X133500762Y-88757333D01*
X133405524Y-88804952D01*
X133357905Y-88852571D01*
X133310286Y-88947810D01*
X141057334Y-80089143D02*
X141009715Y-80136762D01*
X140866858Y-80184381D01*
X140771620Y-80184381D01*
X140628762Y-80136762D01*
X140533524Y-80041524D01*
X140485905Y-79946286D01*
X140438286Y-79755810D01*
X140438286Y-79612952D01*
X140485905Y-79422476D01*
X140533524Y-79327238D01*
X140628762Y-79232000D01*
X140771620Y-79184381D01*
X140866858Y-79184381D01*
X141009715Y-79232000D01*
X141057334Y-79279619D01*
X141390667Y-79184381D02*
X142057334Y-79184381D01*
X141628762Y-80184381D01*
X139025334Y-65011143D02*
X138977715Y-65058762D01*
X138834858Y-65106381D01*
X138739620Y-65106381D01*
X138596762Y-65058762D01*
X138501524Y-64963524D01*
X138453905Y-64868286D01*
X138406286Y-64677810D01*
X138406286Y-64534952D01*
X138453905Y-64344476D01*
X138501524Y-64249238D01*
X138596762Y-64154000D01*
X138739620Y-64106381D01*
X138834858Y-64106381D01*
X138977715Y-64154000D01*
X139025334Y-64201619D01*
X139596762Y-64534952D02*
X139501524Y-64487333D01*
X139453905Y-64439714D01*
X139406286Y-64344476D01*
X139406286Y-64296857D01*
X139453905Y-64201619D01*
X139501524Y-64154000D01*
X139596762Y-64106381D01*
X139787239Y-64106381D01*
X139882477Y-64154000D01*
X139930096Y-64201619D01*
X139977715Y-64296857D01*
X139977715Y-64344476D01*
X139930096Y-64439714D01*
X139882477Y-64487333D01*
X139787239Y-64534952D01*
X139596762Y-64534952D01*
X139501524Y-64582571D01*
X139453905Y-64630190D01*
X139406286Y-64725429D01*
X139406286Y-64915905D01*
X139453905Y-65011143D01*
X139501524Y-65058762D01*
X139596762Y-65106381D01*
X139787239Y-65106381D01*
X139882477Y-65058762D01*
X139930096Y-65011143D01*
X139977715Y-64915905D01*
X139977715Y-64725429D01*
X139930096Y-64630190D01*
X139882477Y-64582571D01*
X139787239Y-64534952D01*
X143591048Y-66275429D02*
X144352953Y-66275429D01*
X143972001Y-66656381D02*
X143972001Y-65894476D01*
X137648381Y-83034095D02*
X136648381Y-83034095D01*
X136648381Y-82796000D01*
X136696000Y-82653142D01*
X136791238Y-82557904D01*
X136886476Y-82510285D01*
X137076952Y-82462666D01*
X137219810Y-82462666D01*
X137410286Y-82510285D01*
X137505524Y-82557904D01*
X137600762Y-82653142D01*
X137648381Y-82796000D01*
X137648381Y-83034095D01*
X137648381Y-81510285D02*
X137648381Y-82081714D01*
X137648381Y-81796000D02*
X136648381Y-81796000D01*
X136791238Y-81891238D01*
X136886476Y-81986476D01*
X136934095Y-82081714D01*
X122705905Y-108582381D02*
X122705905Y-107582381D01*
X122944000Y-107582381D01*
X123086858Y-107630000D01*
X123182096Y-107725238D01*
X123229715Y-107820476D01*
X123277334Y-108010952D01*
X123277334Y-108153810D01*
X123229715Y-108344286D01*
X123182096Y-108439524D01*
X123086858Y-108534762D01*
X122944000Y-108582381D01*
X122705905Y-108582381D01*
X123658286Y-107677619D02*
X123705905Y-107630000D01*
X123801143Y-107582381D01*
X124039239Y-107582381D01*
X124134477Y-107630000D01*
X124182096Y-107677619D01*
X124229715Y-107772857D01*
X124229715Y-107868095D01*
X124182096Y-108010952D01*
X123610667Y-108582381D01*
X124229715Y-108582381D01*
X115869700Y-60308730D02*
X114869700Y-60308730D01*
X115345890Y-60308730D02*
X115345890Y-59737301D01*
X115869700Y-59737301D02*
X114869700Y-59737301D01*
X115869700Y-58737301D02*
X115869700Y-59308730D01*
X115869700Y-59023016D02*
X114869700Y-59023016D01*
X115012557Y-59118254D01*
X115107795Y-59213492D01*
X115155414Y-59308730D01*
X115869700Y-55228725D02*
X114869700Y-55228725D01*
X115345890Y-55228725D02*
X115345890Y-54657296D01*
X115869700Y-54657296D02*
X114869700Y-54657296D01*
X114964938Y-54228725D02*
X114917319Y-54181106D01*
X114869700Y-54085868D01*
X114869700Y-53847772D01*
X114917319Y-53752534D01*
X114964938Y-53704915D01*
X115060176Y-53657296D01*
X115155414Y-53657296D01*
X115298271Y-53704915D01*
X115869700Y-54276344D01*
X115869700Y-53657296D01*
X111934667Y-115066381D02*
X111934667Y-115780667D01*
X111887047Y-115923524D01*
X111791809Y-116018762D01*
X111648952Y-116066381D01*
X111553714Y-116066381D01*
X112934667Y-116066381D02*
X112363238Y-116066381D01*
X112648952Y-116066381D02*
X112648952Y-115066381D01*
X112553714Y-115209238D01*
X112458476Y-115304476D01*
X112363238Y-115352095D01*
X146645334Y-84340381D02*
X146169143Y-84340381D01*
X146169143Y-83340381D01*
X147502477Y-84340381D02*
X146931048Y-84340381D01*
X147216762Y-84340381D02*
X147216762Y-83340381D01*
X147121524Y-83483238D01*
X147026286Y-83578476D01*
X146931048Y-83626095D01*
X132929334Y-92782381D02*
X132596000Y-92306190D01*
X132357905Y-92782381D02*
X132357905Y-91782381D01*
X132738858Y-91782381D01*
X132834096Y-91830000D01*
X132881715Y-91877619D01*
X132929334Y-91972857D01*
X132929334Y-92115714D01*
X132881715Y-92210952D01*
X132834096Y-92258571D01*
X132738858Y-92306190D01*
X132357905Y-92306190D01*
X133881715Y-92782381D02*
X133310286Y-92782381D01*
X133596000Y-92782381D02*
X133596000Y-91782381D01*
X133500762Y-91925238D01*
X133405524Y-92020476D01*
X133310286Y-92068095D01*
X132929334Y-99638381D02*
X132596000Y-99162190D01*
X132357905Y-99638381D02*
X132357905Y-98638381D01*
X132738858Y-98638381D01*
X132834096Y-98686000D01*
X132881715Y-98733619D01*
X132929334Y-98828857D01*
X132929334Y-98971714D01*
X132881715Y-99066952D01*
X132834096Y-99114571D01*
X132738858Y-99162190D01*
X132357905Y-99162190D01*
X133310286Y-98733619D02*
X133357905Y-98686000D01*
X133453143Y-98638381D01*
X133691239Y-98638381D01*
X133786477Y-98686000D01*
X133834096Y-98733619D01*
X133881715Y-98828857D01*
X133881715Y-98924095D01*
X133834096Y-99066952D01*
X133262667Y-99638381D01*
X133881715Y-99638381D01*
X157821334Y-87702381D02*
X157488000Y-87226190D01*
X157249905Y-87702381D02*
X157249905Y-86702381D01*
X157630858Y-86702381D01*
X157726096Y-86750000D01*
X157773715Y-86797619D01*
X157821334Y-86892857D01*
X157821334Y-87035714D01*
X157773715Y-87130952D01*
X157726096Y-87178571D01*
X157630858Y-87226190D01*
X157249905Y-87226190D01*
X158154667Y-86702381D02*
X158773715Y-86702381D01*
X158440381Y-87083333D01*
X158583239Y-87083333D01*
X158678477Y-87130952D01*
X158726096Y-87178571D01*
X158773715Y-87273810D01*
X158773715Y-87511905D01*
X158726096Y-87607143D01*
X158678477Y-87654762D01*
X158583239Y-87702381D01*
X158297524Y-87702381D01*
X158202286Y-87654762D01*
X158154667Y-87607143D01*
X122769334Y-111830381D02*
X122436000Y-111354190D01*
X122197905Y-111830381D02*
X122197905Y-110830381D01*
X122578858Y-110830381D01*
X122674096Y-110878000D01*
X122721715Y-110925619D01*
X122769334Y-111020857D01*
X122769334Y-111163714D01*
X122721715Y-111258952D01*
X122674096Y-111306571D01*
X122578858Y-111354190D01*
X122197905Y-111354190D01*
X123626477Y-111163714D02*
X123626477Y-111830381D01*
X123388381Y-110782762D02*
X123150286Y-111497048D01*
X123769334Y-111497048D01*
X145542095Y-90836381D02*
X145542095Y-91645905D01*
X145589714Y-91741143D01*
X145637333Y-91788762D01*
X145732571Y-91836381D01*
X145923048Y-91836381D01*
X146018286Y-91788762D01*
X146065905Y-91741143D01*
X146113524Y-91645905D01*
X146113524Y-90836381D01*
X147113524Y-91836381D02*
X146542095Y-91836381D01*
X146827809Y-91836381D02*
X146827809Y-90836381D01*
X146732571Y-90979238D01*
X146637333Y-91074476D01*
X146542095Y-91122095D01*
X126249619Y-115919238D02*
X126202000Y-116014476D01*
X126106762Y-116109714D01*
X125963905Y-116252571D01*
X125916286Y-116347810D01*
X125916286Y-116443048D01*
X126154381Y-116395429D02*
X126106762Y-116490667D01*
X126011524Y-116585905D01*
X125821048Y-116633524D01*
X125487714Y-116633524D01*
X125297238Y-116585905D01*
X125202000Y-116490667D01*
X125154381Y-116395429D01*
X125154381Y-116204952D01*
X125202000Y-116109714D01*
X125297238Y-116014476D01*
X125487714Y-115966857D01*
X125821048Y-115966857D01*
X126011524Y-116014476D01*
X126106762Y-116109714D01*
X126154381Y-116204952D01*
X126154381Y-116395429D01*
X126154381Y-115014476D02*
X126154381Y-115585905D01*
X126154381Y-115300191D02*
X125154381Y-115300191D01*
X125297238Y-115395429D01*
X125392476Y-115490667D01*
X125440095Y-115585905D01*
X111696667Y-49592381D02*
X111363333Y-49116190D01*
X111125238Y-49592381D02*
X111125238Y-48592381D01*
X111506191Y-48592381D01*
X111601429Y-48640000D01*
X111649048Y-48687619D01*
X111696667Y-48782857D01*
X111696667Y-48925714D01*
X111649048Y-49020952D01*
X111601429Y-49068571D01*
X111506191Y-49116190D01*
X111125238Y-49116190D01*
X112125238Y-49068571D02*
X112458572Y-49068571D01*
X112601429Y-49592381D02*
X112125238Y-49592381D01*
X112125238Y-48592381D01*
X112601429Y-48592381D01*
X113363334Y-49068571D02*
X113030000Y-49068571D01*
X113030000Y-49592381D02*
X113030000Y-48592381D01*
X113506191Y-48592381D01*
X114030000Y-48592381D02*
X114030000Y-48830476D01*
X113791905Y-48735238D02*
X114030000Y-48830476D01*
X114268096Y-48735238D01*
X113887143Y-49020952D02*
X114030000Y-48830476D01*
X114172858Y-49020952D01*
X114791905Y-48592381D02*
X114791905Y-48830476D01*
X114553810Y-48735238D02*
X114791905Y-48830476D01*
X115030001Y-48735238D01*
X114649048Y-49020952D02*
X114791905Y-48830476D01*
X114934763Y-49020952D01*
X185356667Y-49592381D02*
X185023333Y-49116190D01*
X184785238Y-49592381D02*
X184785238Y-48592381D01*
X185166191Y-48592381D01*
X185261429Y-48640000D01*
X185309048Y-48687619D01*
X185356667Y-48782857D01*
X185356667Y-48925714D01*
X185309048Y-49020952D01*
X185261429Y-49068571D01*
X185166191Y-49116190D01*
X184785238Y-49116190D01*
X185785238Y-49068571D02*
X186118572Y-49068571D01*
X186261429Y-49592381D02*
X185785238Y-49592381D01*
X185785238Y-48592381D01*
X186261429Y-48592381D01*
X187023334Y-49068571D02*
X186690000Y-49068571D01*
X186690000Y-49592381D02*
X186690000Y-48592381D01*
X187166191Y-48592381D01*
X187690000Y-48592381D02*
X187690000Y-48830476D01*
X187451905Y-48735238D02*
X187690000Y-48830476D01*
X187928096Y-48735238D01*
X187547143Y-49020952D02*
X187690000Y-48830476D01*
X187832858Y-49020952D01*
X188451905Y-48592381D02*
X188451905Y-48830476D01*
X188213810Y-48735238D02*
X188451905Y-48830476D01*
X188690001Y-48735238D01*
X188309048Y-49020952D02*
X188451905Y-48830476D01*
X188594763Y-49020952D01*
X107886667Y-135322381D02*
X107553333Y-134846190D01*
X107315238Y-135322381D02*
X107315238Y-134322381D01*
X107696191Y-134322381D01*
X107791429Y-134370000D01*
X107839048Y-134417619D01*
X107886667Y-134512857D01*
X107886667Y-134655714D01*
X107839048Y-134750952D01*
X107791429Y-134798571D01*
X107696191Y-134846190D01*
X107315238Y-134846190D01*
X108315238Y-134798571D02*
X108648572Y-134798571D01*
X108791429Y-135322381D02*
X108315238Y-135322381D01*
X108315238Y-134322381D01*
X108791429Y-134322381D01*
X109553334Y-134798571D02*
X109220000Y-134798571D01*
X109220000Y-135322381D02*
X109220000Y-134322381D01*
X109696191Y-134322381D01*
X110220000Y-134322381D02*
X110220000Y-134560476D01*
X109981905Y-134465238D02*
X110220000Y-134560476D01*
X110458096Y-134465238D01*
X110077143Y-134750952D02*
X110220000Y-134560476D01*
X110362858Y-134750952D01*
X110981905Y-134322381D02*
X110981905Y-134560476D01*
X110743810Y-134465238D02*
X110981905Y-134560476D01*
X111220001Y-134465238D01*
X110839048Y-134750952D02*
X110981905Y-134560476D01*
X111124763Y-134750952D01*
X187896667Y-135322381D02*
X187563333Y-134846190D01*
X187325238Y-135322381D02*
X187325238Y-134322381D01*
X187706191Y-134322381D01*
X187801429Y-134370000D01*
X187849048Y-134417619D01*
X187896667Y-134512857D01*
X187896667Y-134655714D01*
X187849048Y-134750952D01*
X187801429Y-134798571D01*
X187706191Y-134846190D01*
X187325238Y-134846190D01*
X188325238Y-134798571D02*
X188658572Y-134798571D01*
X188801429Y-135322381D02*
X188325238Y-135322381D01*
X188325238Y-134322381D01*
X188801429Y-134322381D01*
X189563334Y-134798571D02*
X189230000Y-134798571D01*
X189230000Y-135322381D02*
X189230000Y-134322381D01*
X189706191Y-134322381D01*
X190230000Y-134322381D02*
X190230000Y-134560476D01*
X189991905Y-134465238D02*
X190230000Y-134560476D01*
X190468096Y-134465238D01*
X190087143Y-134750952D02*
X190230000Y-134560476D01*
X190372858Y-134750952D01*
X190991905Y-134322381D02*
X190991905Y-134560476D01*
X190753810Y-134465238D02*
X190991905Y-134560476D01*
X191230001Y-134465238D01*
X190849048Y-134750952D02*
X190991905Y-134560476D01*
X191134763Y-134750952D01*
M02*
