G04 #@! TF.GenerationSoftware,KiCad,Pcbnew,5.0.0*
G04 #@! TF.CreationDate,2018-07-28T18:12:29-05:00*
G04 #@! TF.ProjectId,PowerBoard,506F776572426F6172642E6B69636164,rev?*
G04 #@! TF.SameCoordinates,Original*
G04 #@! TF.FileFunction,Soldermask,Top*
G04 #@! TF.FilePolarity,Negative*
%FSLAX46Y46*%
G04 Gerber Fmt 4.6, Leading zero omitted, Abs format (unit mm)*
G04 Created by KiCad (PCBNEW 5.0.0) date Sat Jul 28 18:12:29 2018*
%MOMM*%
%LPD*%
G01*
G04 APERTURE LIST*
%ADD10R,4.400000X2.900000*%
%ADD11R,1.400000X1.650000*%
%ADD12R,3.700000X2.900000*%
%ADD13R,1.600000X1.600000*%
%ADD14R,2.100000X2.100000*%
%ADD15O,2.100000X2.100000*%
%ADD16R,1.100000X1.700000*%
%ADD17R,1.950000X1.000000*%
%ADD18R,1.600000X2.000000*%
%ADD19R,0.775000X0.900000*%
%ADD20R,0.700000X1.050000*%
%ADD21C,3.600000*%
G04 APERTURE END LIST*
D10*
G04 #@! TO.C,C1*
X152906000Y-70104000D03*
X159006000Y-70104000D03*
G04 #@! TD*
D11*
G04 #@! TO.C,C2*
X151908000Y-78232000D03*
X153908000Y-78232000D03*
G04 #@! TD*
G04 #@! TO.C,C3*
X163084000Y-88900000D03*
X165084000Y-88900000D03*
G04 #@! TD*
G04 #@! TO.C,C4*
X153908000Y-82804000D03*
X151908000Y-82804000D03*
G04 #@! TD*
G04 #@! TO.C,C5*
X156988000Y-85852000D03*
X158988000Y-85852000D03*
G04 #@! TD*
G04 #@! TO.C,C6*
X132096000Y-90424000D03*
X134096000Y-90424000D03*
G04 #@! TD*
G04 #@! TO.C,C7*
X142224000Y-78232000D03*
X140224000Y-78232000D03*
G04 #@! TD*
D10*
G04 #@! TO.C,C8*
X142242000Y-70104000D03*
X136142000Y-70104000D03*
G04 #@! TD*
D12*
G04 #@! TO.C,D1*
X133096000Y-78896000D03*
X133096000Y-85696000D03*
G04 #@! TD*
D13*
G04 #@! TO.C,D2*
X122344000Y-106680000D03*
X124544000Y-106680000D03*
G04 #@! TD*
D14*
G04 #@! TO.C,H1*
X118110000Y-60960000D03*
D15*
X118110000Y-58420000D03*
X120650000Y-60960000D03*
X120650000Y-58420000D03*
X123190000Y-60960000D03*
X123190000Y-58420000D03*
X125730000Y-60960000D03*
X125730000Y-58420000D03*
X128270000Y-60960000D03*
X128270000Y-58420000D03*
X130810000Y-60960000D03*
X130810000Y-58420000D03*
X133350000Y-60960000D03*
X133350000Y-58420000D03*
X135890000Y-60960000D03*
X135890000Y-58420000D03*
X138430000Y-60960000D03*
X138430000Y-58420000D03*
X140970000Y-60960000D03*
X140970000Y-58420000D03*
X143510000Y-60960000D03*
X143510000Y-58420000D03*
X146050000Y-60960000D03*
X146050000Y-58420000D03*
X148590000Y-60960000D03*
X148590000Y-58420000D03*
X151130000Y-60960000D03*
X151130000Y-58420000D03*
X153670000Y-60960000D03*
X153670000Y-58420000D03*
X156210000Y-60960000D03*
X156210000Y-58420000D03*
X158750000Y-60960000D03*
X158750000Y-58420000D03*
X161290000Y-60960000D03*
X161290000Y-58420000D03*
X163830000Y-60960000D03*
X163830000Y-58420000D03*
X166370000Y-60960000D03*
X166370000Y-58420000D03*
X168910000Y-60960000D03*
X168910000Y-58420000D03*
X171450000Y-60960000D03*
X171450000Y-58420000D03*
X173990000Y-60960000D03*
X173990000Y-58420000D03*
X176530000Y-60960000D03*
X176530000Y-58420000D03*
X179070000Y-60960000D03*
X179070000Y-58420000D03*
X181610000Y-60960000D03*
X181610000Y-58420000D03*
G04 #@! TD*
D14*
G04 #@! TO.C,H2*
X118110000Y-55879995D03*
D15*
X118110000Y-53339995D03*
X120650000Y-55879995D03*
X120650000Y-53339995D03*
X123190000Y-55879995D03*
X123190000Y-53339995D03*
X125730000Y-55879995D03*
X125730000Y-53339995D03*
X128270000Y-55879995D03*
X128270000Y-53339995D03*
X130810000Y-55879995D03*
X130810000Y-53339995D03*
X133350000Y-55879995D03*
X133350000Y-53339995D03*
X135890000Y-55879995D03*
X135890000Y-53339995D03*
X138430000Y-55879995D03*
X138430000Y-53339995D03*
X140970000Y-55879995D03*
X140970000Y-53339995D03*
X143510000Y-55879995D03*
X143510000Y-53339995D03*
X146050000Y-55879995D03*
X146050000Y-53339995D03*
X148590000Y-55879995D03*
X148590000Y-53339995D03*
X151130000Y-55879995D03*
X151130000Y-53339995D03*
X153670000Y-55879995D03*
X153670000Y-53339995D03*
X156210000Y-55879995D03*
X156210000Y-53339995D03*
X158750000Y-55879995D03*
X158750000Y-53339995D03*
X161290000Y-55879995D03*
X161290000Y-53339995D03*
X163830000Y-55879995D03*
X163830000Y-53339995D03*
X166370000Y-55879995D03*
X166370000Y-53339995D03*
X168910000Y-55879995D03*
X168910000Y-53339995D03*
X171450000Y-55879995D03*
X171450000Y-53339995D03*
X173990000Y-55879995D03*
X173990000Y-53339995D03*
X176530000Y-55879995D03*
X176530000Y-53339995D03*
X179070000Y-55879995D03*
X179070000Y-53339995D03*
X181610000Y-55879995D03*
X181610000Y-53339995D03*
G04 #@! TD*
D14*
G04 #@! TO.C,J1*
X112268000Y-113284000D03*
D15*
X112268000Y-110744000D03*
G04 #@! TD*
D16*
G04 #@! TO.C,L1*
X147762000Y-81788000D03*
X145862000Y-81788000D03*
G04 #@! TD*
G04 #@! TO.C,R1*
X132146000Y-93980000D03*
X134046000Y-93980000D03*
G04 #@! TD*
G04 #@! TO.C,R2*
X134046000Y-97536000D03*
X132146000Y-97536000D03*
G04 #@! TD*
G04 #@! TO.C,R3*
X157038000Y-88900000D03*
X158938000Y-88900000D03*
G04 #@! TD*
G04 #@! TO.C,R4*
X123886000Y-109728000D03*
X121986000Y-109728000D03*
G04 #@! TD*
D17*
G04 #@! TO.C,U1*
X149004000Y-89789000D03*
X149004000Y-88519000D03*
X149004000Y-87249000D03*
X149004000Y-85979000D03*
X143604000Y-85979000D03*
X143604000Y-87249000D03*
X143604000Y-88519000D03*
X143604000Y-89789000D03*
D18*
X145704000Y-87084000D03*
X145704000Y-88684000D03*
X146904000Y-87084000D03*
X146904000Y-88684000D03*
G04 #@! TD*
D19*
G04 #@! TO.C,Q1*
X124489500Y-114974000D03*
X123414500Y-114974000D03*
D20*
X123952000Y-116749000D03*
X123952000Y-114899000D03*
D19*
X123414500Y-116674000D03*
X124489500Y-116674000D03*
G04 #@! TD*
D21*
G04 #@! TO.C,REF\002A\002A*
X113030000Y-53340000D03*
G04 #@! TD*
G04 #@! TO.C,REF\002A\002A*
X186690000Y-53340000D03*
G04 #@! TD*
G04 #@! TO.C,REF\002A\002A*
X109220000Y-139070000D03*
G04 #@! TD*
G04 #@! TO.C,REF\002A\002A*
X189230000Y-139070000D03*
G04 #@! TD*
D13*
G04 #@! TO.C,D3*
X122661500Y-122237500D03*
X124861500Y-122237500D03*
G04 #@! TD*
D14*
G04 #@! TO.C,J2*
X112268000Y-125984000D03*
D15*
X112268000Y-123444000D03*
G04 #@! TD*
D19*
G04 #@! TO.C,Q2*
X123029000Y-129388500D03*
X121954000Y-129388500D03*
D20*
X122491500Y-131163500D03*
X122491500Y-129313500D03*
D19*
X121954000Y-131088500D03*
X123029000Y-131088500D03*
G04 #@! TD*
D16*
G04 #@! TO.C,R5*
X124394000Y-125158500D03*
X122494000Y-125158500D03*
G04 #@! TD*
D14*
G04 #@! TO.C,J3*
X179730400Y-97840800D03*
D15*
X179730400Y-95300800D03*
G04 #@! TD*
M02*
