G04 #@! TF.FileFunction,Copper,L1,Top,Signal*
%FSLAX46Y46*%
G04 Gerber Fmt 4.6, Leading zero omitted, Abs format (unit mm)*
G04 Created by KiCad (PCBNEW 4.0.7) date Mon Jul  2 20:07:42 2018*
%MOMM*%
%LPD*%
G01*
G04 APERTURE LIST*
%ADD10C,0.100000*%
%ADD11R,4.000000X2.500000*%
%ADD12R,1.000000X1.250000*%
%ADD13R,3.300000X2.500000*%
%ADD14R,1.200000X1.200000*%
%ADD15R,1.700000X1.700000*%
%ADD16O,1.700000X1.700000*%
%ADD17R,0.700000X1.300000*%
%ADD18R,1.550000X0.600000*%
%ADD19R,1.200000X1.600000*%
%ADD20R,0.375000X0.500000*%
%ADD21R,0.300000X0.650000*%
%ADD22C,0.508000*%
%ADD23C,0.250000*%
%ADD24C,0.254000*%
G04 APERTURE END LIST*
D10*
D11*
X152906000Y-70104000D03*
X159006000Y-70104000D03*
D12*
X151908000Y-78232000D03*
X153908000Y-78232000D03*
X163084000Y-88900000D03*
X165084000Y-88900000D03*
X153908000Y-82804000D03*
X151908000Y-82804000D03*
X156988000Y-85852000D03*
X158988000Y-85852000D03*
X132096000Y-90424000D03*
X134096000Y-90424000D03*
X142224000Y-78232000D03*
X140224000Y-78232000D03*
D11*
X142242000Y-70104000D03*
X136142000Y-70104000D03*
D13*
X133096000Y-78896000D03*
X133096000Y-85696000D03*
D14*
X122344000Y-106680000D03*
X124544000Y-106680000D03*
D15*
X118110000Y-60960000D03*
D16*
X118110000Y-58420000D03*
X120650000Y-60960000D03*
X120650000Y-58420000D03*
X123190000Y-60960000D03*
X123190000Y-58420000D03*
X125730000Y-60960000D03*
X125730000Y-58420000D03*
X128270000Y-60960000D03*
X128270000Y-58420000D03*
X130810000Y-60960000D03*
X130810000Y-58420000D03*
X133350000Y-60960000D03*
X133350000Y-58420000D03*
X135890000Y-60960000D03*
X135890000Y-58420000D03*
X138430000Y-60960000D03*
X138430000Y-58420000D03*
X140970000Y-60960000D03*
X140970000Y-58420000D03*
X143510000Y-60960000D03*
X143510000Y-58420000D03*
X146050000Y-60960000D03*
X146050000Y-58420000D03*
X148590000Y-60960000D03*
X148590000Y-58420000D03*
X151130000Y-60960000D03*
X151130000Y-58420000D03*
X153670000Y-60960000D03*
X153670000Y-58420000D03*
X156210000Y-60960000D03*
X156210000Y-58420000D03*
X158750000Y-60960000D03*
X158750000Y-58420000D03*
X161290000Y-60960000D03*
X161290000Y-58420000D03*
X163830000Y-60960000D03*
X163830000Y-58420000D03*
X166370000Y-60960000D03*
X166370000Y-58420000D03*
X168910000Y-60960000D03*
X168910000Y-58420000D03*
X171450000Y-60960000D03*
X171450000Y-58420000D03*
X173990000Y-60960000D03*
X173990000Y-58420000D03*
X176530000Y-60960000D03*
X176530000Y-58420000D03*
X179070000Y-60960000D03*
X179070000Y-58420000D03*
X181610000Y-60960000D03*
X181610000Y-58420000D03*
D15*
X118110000Y-55879995D03*
D16*
X118110000Y-53339995D03*
X120650000Y-55879995D03*
X120650000Y-53339995D03*
X123190000Y-55879995D03*
X123190000Y-53339995D03*
X125730000Y-55879995D03*
X125730000Y-53339995D03*
X128270000Y-55879995D03*
X128270000Y-53339995D03*
X130810000Y-55879995D03*
X130810000Y-53339995D03*
X133350000Y-55879995D03*
X133350000Y-53339995D03*
X135890000Y-55879995D03*
X135890000Y-53339995D03*
X138430000Y-55879995D03*
X138430000Y-53339995D03*
X140970000Y-55879995D03*
X140970000Y-53339995D03*
X143510000Y-55879995D03*
X143510000Y-53339995D03*
X146050000Y-55879995D03*
X146050000Y-53339995D03*
X148590000Y-55879995D03*
X148590000Y-53339995D03*
X151130000Y-55879995D03*
X151130000Y-53339995D03*
X153670000Y-55879995D03*
X153670000Y-53339995D03*
X156210000Y-55879995D03*
X156210000Y-53339995D03*
X158750000Y-55879995D03*
X158750000Y-53339995D03*
X161290000Y-55879995D03*
X161290000Y-53339995D03*
X163830000Y-55879995D03*
X163830000Y-53339995D03*
X166370000Y-55879995D03*
X166370000Y-53339995D03*
X168910000Y-55879995D03*
X168910000Y-53339995D03*
X171450000Y-55879995D03*
X171450000Y-53339995D03*
X173990000Y-55879995D03*
X173990000Y-53339995D03*
X176530000Y-55879995D03*
X176530000Y-53339995D03*
X179070000Y-55879995D03*
X179070000Y-53339995D03*
X181610000Y-55879995D03*
X181610000Y-53339995D03*
D15*
X112268000Y-113284000D03*
D16*
X112268000Y-110744000D03*
D17*
X147762000Y-81788000D03*
X145862000Y-81788000D03*
X132146000Y-93980000D03*
X134046000Y-93980000D03*
X134046000Y-97536000D03*
X132146000Y-97536000D03*
X157038000Y-88900000D03*
X158938000Y-88900000D03*
X123886000Y-109728000D03*
X121986000Y-109728000D03*
D18*
X149004000Y-89789000D03*
X149004000Y-88519000D03*
X149004000Y-87249000D03*
X149004000Y-85979000D03*
X143604000Y-85979000D03*
X143604000Y-87249000D03*
X143604000Y-88519000D03*
X143604000Y-89789000D03*
D19*
X145704000Y-87084000D03*
X145704000Y-88684000D03*
X146904000Y-87084000D03*
X146904000Y-88684000D03*
D20*
X124489500Y-114974000D03*
X123414500Y-114974000D03*
D21*
X123952000Y-116749000D03*
X123952000Y-114899000D03*
D20*
X123414500Y-116674000D03*
X124489500Y-116674000D03*
D22*
X148894800Y-63703200D03*
X151485600Y-88341200D03*
X137160000Y-50800000D03*
X154940000Y-85852000D03*
X150876000Y-85344000D03*
D23*
X149860000Y-63347600D02*
X149250400Y-63347600D01*
X149250400Y-63347600D02*
X148894800Y-63703200D01*
X149004000Y-88519000D02*
X151307800Y-88519000D01*
X151307800Y-88519000D02*
X151485600Y-88341200D01*
X147762000Y-81788000D02*
X150892000Y-81788000D01*
X150892000Y-81788000D02*
X151908000Y-82804000D01*
X149004000Y-87249000D02*
X149004000Y-88519000D01*
X151908000Y-82804000D02*
X151908000Y-86344000D01*
X151003000Y-87249000D02*
X149004000Y-87249000D01*
X151908000Y-86344000D02*
X151003000Y-87249000D01*
X151908000Y-78232000D02*
X151908000Y-82804000D01*
X152906000Y-70104000D02*
X152906000Y-77234000D01*
X152906000Y-77234000D02*
X151908000Y-78232000D01*
X149860000Y-64516000D02*
X149860000Y-67058000D01*
X149860000Y-67058000D02*
X152906000Y-70104000D01*
X148590000Y-53339995D02*
X148590000Y-55879995D01*
X148590000Y-55879995D02*
X149860000Y-57149995D01*
X149860000Y-57149995D02*
X149860000Y-63347600D01*
X149860000Y-63347600D02*
X149860000Y-64516000D01*
X149860000Y-64516000D02*
X149860000Y-64668400D01*
X128270000Y-55879995D02*
X129540000Y-54609995D01*
X129540000Y-54609995D02*
X129540000Y-50800000D01*
X156210000Y-53339995D02*
X157480000Y-52069995D01*
X161798005Y-52069995D02*
X162560000Y-51308000D01*
X157480000Y-52069995D02*
X161798005Y-52069995D01*
X158938000Y-88900000D02*
X163084000Y-88900000D01*
X156988000Y-85852000D02*
X156988000Y-88850000D01*
X156988000Y-88850000D02*
X157038000Y-88900000D01*
X149004000Y-85979000D02*
X150241000Y-85979000D01*
X154940000Y-85852000D02*
X156988000Y-85852000D01*
X150241000Y-85979000D02*
X150876000Y-85344000D01*
X134096000Y-90424000D02*
X137271000Y-87249000D01*
X137271000Y-87249000D02*
X143604000Y-87249000D01*
X140970000Y-53339995D02*
X140970000Y-55879995D01*
X140970000Y-55879995D02*
X142242000Y-57151995D01*
X142242000Y-57151995D02*
X142242000Y-70104000D01*
X132146000Y-93980000D02*
X133096000Y-93030000D01*
X130400000Y-78896000D02*
X133096000Y-78896000D01*
X129032000Y-80264000D02*
X130400000Y-78896000D01*
X129032000Y-86868000D02*
X129032000Y-80264000D01*
X130048000Y-87884000D02*
X129032000Y-86868000D01*
X132080000Y-87884000D02*
X130048000Y-87884000D01*
X133096000Y-88900000D02*
X132080000Y-87884000D01*
X133096000Y-93030000D02*
X133096000Y-88900000D01*
X142224000Y-78232000D02*
X142224000Y-70122000D01*
X142224000Y-70122000D02*
X142242000Y-70104000D01*
X133096000Y-78896000D02*
X134972000Y-80772000D01*
X142224000Y-79772000D02*
X142224000Y-78232000D01*
X141224000Y-80772000D02*
X142224000Y-79772000D01*
X134972000Y-80772000D02*
X141224000Y-80772000D01*
X143604000Y-85979000D02*
X133379000Y-85979000D01*
X133379000Y-85979000D02*
X133096000Y-85696000D01*
X145862000Y-81788000D02*
X145288000Y-81788000D01*
X143604000Y-83472000D02*
X143604000Y-85979000D01*
X145288000Y-81788000D02*
X143604000Y-83472000D01*
X121986000Y-109728000D02*
X121986000Y-107038000D01*
X121986000Y-107038000D02*
X122344000Y-106680000D01*
X122428000Y-114778500D02*
X123219000Y-114778500D01*
X123219000Y-114778500D02*
X123414500Y-114974000D01*
X121382500Y-114778500D02*
X122428000Y-114778500D01*
X122428000Y-114778500D02*
X122594000Y-114778500D01*
X119405400Y-112801400D02*
X120812600Y-112801400D01*
X120812600Y-112801400D02*
X123886000Y-109728000D01*
X118110000Y-60960000D02*
X118110000Y-111506000D01*
X118110000Y-111506000D02*
X119405400Y-112801400D01*
X119405400Y-112801400D02*
X121382500Y-114778500D01*
X118110000Y-55879995D02*
X117348005Y-55879995D01*
X117348005Y-55879995D02*
X115316000Y-57912000D01*
X115316000Y-57912000D02*
X115316000Y-59944000D01*
X115316000Y-59944000D02*
X116332000Y-60960000D01*
X116332000Y-60960000D02*
X118110000Y-60960000D01*
X123952000Y-115824000D02*
X114808000Y-115824000D01*
X114808000Y-115824000D02*
X112268000Y-113284000D01*
X123952000Y-116749000D02*
X123952000Y-115824000D01*
X123952000Y-115824000D02*
X123952000Y-114899000D01*
X124489500Y-116674000D02*
X124027000Y-116674000D01*
X124027000Y-116674000D02*
X123952000Y-116749000D01*
X124489500Y-114974000D02*
X124027000Y-114974000D01*
X124027000Y-114974000D02*
X123952000Y-114899000D01*
X134046000Y-93980000D02*
X134046000Y-97536000D01*
X134046000Y-93980000D02*
X139507000Y-88519000D01*
X139507000Y-88519000D02*
X143604000Y-88519000D01*
D24*
G36*
X138557000Y-51816000D02*
X138564420Y-51852640D01*
X138430000Y-51825902D01*
X137861715Y-51938941D01*
X137379946Y-52260848D01*
X137160000Y-52590021D01*
X136940054Y-52260848D01*
X136458285Y-51938941D01*
X135890000Y-51825902D01*
X135321715Y-51938941D01*
X134839946Y-52260848D01*
X134612298Y-52601548D01*
X134545183Y-52458637D01*
X134116924Y-52068350D01*
X133706890Y-51898519D01*
X133477000Y-52019840D01*
X133477000Y-53212995D01*
X133497000Y-53212995D01*
X133497000Y-53466995D01*
X133477000Y-53466995D01*
X133477000Y-53486995D01*
X133223000Y-53486995D01*
X133223000Y-53466995D01*
X133203000Y-53466995D01*
X133203000Y-53212995D01*
X133223000Y-53212995D01*
X133223000Y-52019840D01*
X132993110Y-51898519D01*
X132583076Y-52068350D01*
X132154817Y-52458637D01*
X132087702Y-52601548D01*
X131860054Y-52260848D01*
X131378285Y-51938941D01*
X130810000Y-51825902D01*
X130241715Y-51938941D01*
X129759946Y-52260848D01*
X129540000Y-52590021D01*
X129320054Y-52260848D01*
X128838285Y-51938941D01*
X128270000Y-51825902D01*
X127701715Y-51938941D01*
X127219946Y-52260848D01*
X127000000Y-52590021D01*
X126780054Y-52260848D01*
X126298285Y-51938941D01*
X125730000Y-51825902D01*
X125161715Y-51938941D01*
X124679946Y-52260848D01*
X124460000Y-52590021D01*
X124240054Y-52260848D01*
X123758285Y-51938941D01*
X123190000Y-51825902D01*
X122621715Y-51938941D01*
X122139946Y-52260848D01*
X121920000Y-52590021D01*
X121700054Y-52260848D01*
X121218285Y-51938941D01*
X120650000Y-51825902D01*
X120081715Y-51938941D01*
X119599946Y-52260848D01*
X119380000Y-52590021D01*
X119160054Y-52260848D01*
X118678285Y-51938941D01*
X118110000Y-51825902D01*
X117541715Y-51938941D01*
X117059946Y-52260848D01*
X116738039Y-52742617D01*
X116625000Y-53310902D01*
X116625000Y-53369088D01*
X116738039Y-53937373D01*
X117059946Y-54419142D01*
X117061179Y-54419966D01*
X117024683Y-54426833D01*
X116808559Y-54565905D01*
X116663569Y-54778105D01*
X116612560Y-55029995D01*
X116612560Y-55540638D01*
X114778599Y-57374599D01*
X114613852Y-57621161D01*
X114556000Y-57912000D01*
X114556000Y-59944000D01*
X114613852Y-60234839D01*
X114778599Y-60481401D01*
X115794599Y-61497401D01*
X116041161Y-61662148D01*
X116332000Y-61720000D01*
X116612560Y-61720000D01*
X116612560Y-61810000D01*
X116656838Y-62045317D01*
X116795910Y-62261441D01*
X117008110Y-62406431D01*
X117260000Y-62457440D01*
X117350000Y-62457440D01*
X117350000Y-111506000D01*
X117407852Y-111796839D01*
X117572599Y-112043401D01*
X120593198Y-115064000D01*
X115122802Y-115064000D01*
X113765440Y-113706638D01*
X113765440Y-112434000D01*
X113721162Y-112198683D01*
X113582090Y-111982559D01*
X113369890Y-111837569D01*
X113302459Y-111823914D01*
X113347147Y-111794054D01*
X113669054Y-111312285D01*
X113782093Y-110744000D01*
X113669054Y-110175715D01*
X113347147Y-109693946D01*
X112865378Y-109372039D01*
X112297093Y-109259000D01*
X112238907Y-109259000D01*
X111670622Y-109372039D01*
X111188853Y-109693946D01*
X110866946Y-110175715D01*
X110753907Y-110744000D01*
X110866946Y-111312285D01*
X111188853Y-111794054D01*
X111230452Y-111821850D01*
X111182683Y-111830838D01*
X110966559Y-111969910D01*
X110821569Y-112182110D01*
X110770560Y-112434000D01*
X110770560Y-114134000D01*
X110814838Y-114369317D01*
X110953910Y-114585441D01*
X111166110Y-114730431D01*
X111418000Y-114781440D01*
X112690638Y-114781440D01*
X114270599Y-116361401D01*
X114517160Y-116526148D01*
X114565414Y-116535746D01*
X114808000Y-116584000D01*
X123154560Y-116584000D01*
X123154560Y-116799000D01*
X122750750Y-116799000D01*
X122592000Y-116957750D01*
X122592000Y-117050309D01*
X122688673Y-117283698D01*
X122867301Y-117462327D01*
X123100690Y-117559000D01*
X123162000Y-117559000D01*
X123282174Y-117438826D01*
X123287498Y-117447100D01*
X123287498Y-117559000D01*
X123387025Y-117559000D01*
X123550110Y-117670431D01*
X123802000Y-117721440D01*
X124102000Y-117721440D01*
X124337317Y-117677162D01*
X124501614Y-117571440D01*
X124677000Y-117571440D01*
X124912317Y-117527162D01*
X125128441Y-117388090D01*
X125273431Y-117175890D01*
X125324440Y-116924000D01*
X125324440Y-116424000D01*
X125280162Y-116188683D01*
X125141090Y-115972559D01*
X124928890Y-115827569D01*
X124915803Y-115824919D01*
X125128441Y-115688090D01*
X125273431Y-115475890D01*
X125324440Y-115224000D01*
X125324440Y-114724000D01*
X125280162Y-114488683D01*
X125141090Y-114272559D01*
X124928890Y-114127569D01*
X124677000Y-114076560D01*
X124498768Y-114076560D01*
X124353890Y-113977569D01*
X124102000Y-113926560D01*
X123802000Y-113926560D01*
X123566683Y-113970838D01*
X123428006Y-114060074D01*
X123219000Y-114018500D01*
X121697302Y-114018500D01*
X121150743Y-113471941D01*
X121350001Y-113338801D01*
X123663362Y-111025440D01*
X124236000Y-111025440D01*
X124471317Y-110981162D01*
X124687441Y-110842090D01*
X124832431Y-110629890D01*
X124883440Y-110378000D01*
X124883440Y-109078000D01*
X124839162Y-108842683D01*
X124700090Y-108626559D01*
X124487890Y-108481569D01*
X124236000Y-108430560D01*
X123536000Y-108430560D01*
X123300683Y-108474838D01*
X123084559Y-108613910D01*
X122939569Y-108826110D01*
X122936919Y-108839197D01*
X122800090Y-108626559D01*
X122746000Y-108589601D01*
X122746000Y-107927440D01*
X122944000Y-107927440D01*
X123179317Y-107883162D01*
X123395441Y-107744090D01*
X123441969Y-107675994D01*
X123584302Y-107818327D01*
X123817691Y-107915000D01*
X124258250Y-107915000D01*
X124417000Y-107756250D01*
X124417000Y-106807000D01*
X124671000Y-106807000D01*
X124671000Y-107756250D01*
X124829750Y-107915000D01*
X125270309Y-107915000D01*
X125503698Y-107818327D01*
X125682327Y-107639699D01*
X125779000Y-107406310D01*
X125779000Y-106965750D01*
X125620250Y-106807000D01*
X124671000Y-106807000D01*
X124417000Y-106807000D01*
X124397000Y-106807000D01*
X124397000Y-106553000D01*
X124417000Y-106553000D01*
X124417000Y-105603750D01*
X124671000Y-105603750D01*
X124671000Y-106553000D01*
X125620250Y-106553000D01*
X125779000Y-106394250D01*
X125779000Y-105953690D01*
X125682327Y-105720301D01*
X125503698Y-105541673D01*
X125270309Y-105445000D01*
X124829750Y-105445000D01*
X124671000Y-105603750D01*
X124417000Y-105603750D01*
X124258250Y-105445000D01*
X123817691Y-105445000D01*
X123584302Y-105541673D01*
X123443064Y-105682910D01*
X123408090Y-105628559D01*
X123195890Y-105483569D01*
X122944000Y-105432560D01*
X121744000Y-105432560D01*
X121508683Y-105476838D01*
X121292559Y-105615910D01*
X121147569Y-105828110D01*
X121096560Y-106080000D01*
X121096560Y-107280000D01*
X121140838Y-107515317D01*
X121226000Y-107647662D01*
X121226000Y-108587243D01*
X121184559Y-108613910D01*
X121039569Y-108826110D01*
X120988560Y-109078000D01*
X120988560Y-110378000D01*
X121032838Y-110613317D01*
X121171910Y-110829441D01*
X121384110Y-110974431D01*
X121534344Y-111004854D01*
X120497798Y-112041400D01*
X119720202Y-112041400D01*
X118870000Y-111191198D01*
X118870000Y-97821750D01*
X131161000Y-97821750D01*
X131161000Y-98312310D01*
X131257673Y-98545699D01*
X131436302Y-98724327D01*
X131669691Y-98821000D01*
X131860250Y-98821000D01*
X132019000Y-98662250D01*
X132019000Y-97663000D01*
X131319750Y-97663000D01*
X131161000Y-97821750D01*
X118870000Y-97821750D01*
X118870000Y-96759690D01*
X131161000Y-96759690D01*
X131161000Y-97250250D01*
X131319750Y-97409000D01*
X132019000Y-97409000D01*
X132019000Y-96409750D01*
X131860250Y-96251000D01*
X131669691Y-96251000D01*
X131436302Y-96347673D01*
X131257673Y-96526301D01*
X131161000Y-96759690D01*
X118870000Y-96759690D01*
X118870000Y-90709750D01*
X130961000Y-90709750D01*
X130961000Y-91175310D01*
X131057673Y-91408699D01*
X131236302Y-91587327D01*
X131469691Y-91684000D01*
X131810250Y-91684000D01*
X131969000Y-91525250D01*
X131969000Y-90551000D01*
X131119750Y-90551000D01*
X130961000Y-90709750D01*
X118870000Y-90709750D01*
X118870000Y-89672690D01*
X130961000Y-89672690D01*
X130961000Y-90138250D01*
X131119750Y-90297000D01*
X131969000Y-90297000D01*
X131969000Y-89322750D01*
X131810250Y-89164000D01*
X131469691Y-89164000D01*
X131236302Y-89260673D01*
X131057673Y-89439301D01*
X130961000Y-89672690D01*
X118870000Y-89672690D01*
X118870000Y-70389750D01*
X133507000Y-70389750D01*
X133507000Y-71480310D01*
X133603673Y-71713699D01*
X133782302Y-71892327D01*
X134015691Y-71989000D01*
X135856250Y-71989000D01*
X136015000Y-71830250D01*
X136015000Y-70231000D01*
X136269000Y-70231000D01*
X136269000Y-71830250D01*
X136427750Y-71989000D01*
X138268309Y-71989000D01*
X138501698Y-71892327D01*
X138680327Y-71713699D01*
X138777000Y-71480310D01*
X138777000Y-70389750D01*
X138618250Y-70231000D01*
X136269000Y-70231000D01*
X136015000Y-70231000D01*
X133665750Y-70231000D01*
X133507000Y-70389750D01*
X118870000Y-70389750D01*
X118870000Y-68727690D01*
X133507000Y-68727690D01*
X133507000Y-69818250D01*
X133665750Y-69977000D01*
X136015000Y-69977000D01*
X136015000Y-68377750D01*
X136269000Y-68377750D01*
X136269000Y-69977000D01*
X138618250Y-69977000D01*
X138777000Y-69818250D01*
X138777000Y-68727690D01*
X138680327Y-68494301D01*
X138501698Y-68315673D01*
X138268309Y-68219000D01*
X136427750Y-68219000D01*
X136269000Y-68377750D01*
X136015000Y-68377750D01*
X135856250Y-68219000D01*
X134015691Y-68219000D01*
X133782302Y-68315673D01*
X133603673Y-68494301D01*
X133507000Y-68727690D01*
X118870000Y-68727690D01*
X118870000Y-62457440D01*
X118960000Y-62457440D01*
X119195317Y-62413162D01*
X119411441Y-62274090D01*
X119556431Y-62061890D01*
X119570086Y-61994459D01*
X119599946Y-62039147D01*
X120081715Y-62361054D01*
X120650000Y-62474093D01*
X121218285Y-62361054D01*
X121700054Y-62039147D01*
X121920000Y-61709974D01*
X122139946Y-62039147D01*
X122621715Y-62361054D01*
X123190000Y-62474093D01*
X123758285Y-62361054D01*
X124240054Y-62039147D01*
X124460000Y-61709974D01*
X124679946Y-62039147D01*
X125161715Y-62361054D01*
X125730000Y-62474093D01*
X126298285Y-62361054D01*
X126780054Y-62039147D01*
X127000000Y-61709974D01*
X127219946Y-62039147D01*
X127701715Y-62361054D01*
X128270000Y-62474093D01*
X128838285Y-62361054D01*
X129320054Y-62039147D01*
X129540000Y-61709974D01*
X129759946Y-62039147D01*
X130241715Y-62361054D01*
X130810000Y-62474093D01*
X131378285Y-62361054D01*
X131860054Y-62039147D01*
X132080000Y-61709974D01*
X132299946Y-62039147D01*
X132781715Y-62361054D01*
X133350000Y-62474093D01*
X133918285Y-62361054D01*
X134400054Y-62039147D01*
X134620000Y-61709974D01*
X134839946Y-62039147D01*
X135321715Y-62361054D01*
X135890000Y-62474093D01*
X136458285Y-62361054D01*
X136940054Y-62039147D01*
X137160000Y-61709974D01*
X137379946Y-62039147D01*
X137861715Y-62361054D01*
X138430000Y-62474093D01*
X138998285Y-62361054D01*
X139480054Y-62039147D01*
X139700000Y-61709974D01*
X139919946Y-62039147D01*
X140401715Y-62361054D01*
X140970000Y-62474093D01*
X141482000Y-62372250D01*
X141482000Y-68206560D01*
X140242000Y-68206560D01*
X140006683Y-68250838D01*
X139790559Y-68389910D01*
X139645569Y-68602110D01*
X139594560Y-68854000D01*
X139594560Y-71354000D01*
X139638838Y-71589317D01*
X139777910Y-71805441D01*
X139990110Y-71950431D01*
X140242000Y-72001440D01*
X141464000Y-72001440D01*
X141464000Y-77019721D01*
X141272559Y-77142910D01*
X141226031Y-77211006D01*
X141083698Y-77068673D01*
X140850309Y-76972000D01*
X140509750Y-76972000D01*
X140351000Y-77130750D01*
X140351000Y-78105000D01*
X140371000Y-78105000D01*
X140371000Y-78359000D01*
X140351000Y-78359000D01*
X140351000Y-79333250D01*
X140509750Y-79492000D01*
X140850309Y-79492000D01*
X141083698Y-79395327D01*
X141224936Y-79254090D01*
X141259910Y-79308441D01*
X141464000Y-79447890D01*
X141464000Y-79457198D01*
X140909198Y-80012000D01*
X135393440Y-80012000D01*
X135393440Y-78517750D01*
X139089000Y-78517750D01*
X139089000Y-78983310D01*
X139185673Y-79216699D01*
X139364302Y-79395327D01*
X139597691Y-79492000D01*
X139938250Y-79492000D01*
X140097000Y-79333250D01*
X140097000Y-78359000D01*
X139247750Y-78359000D01*
X139089000Y-78517750D01*
X135393440Y-78517750D01*
X135393440Y-77646000D01*
X135362335Y-77480690D01*
X139089000Y-77480690D01*
X139089000Y-77946250D01*
X139247750Y-78105000D01*
X140097000Y-78105000D01*
X140097000Y-77130750D01*
X139938250Y-76972000D01*
X139597691Y-76972000D01*
X139364302Y-77068673D01*
X139185673Y-77247301D01*
X139089000Y-77480690D01*
X135362335Y-77480690D01*
X135349162Y-77410683D01*
X135210090Y-77194559D01*
X134997890Y-77049569D01*
X134746000Y-76998560D01*
X131446000Y-76998560D01*
X131210683Y-77042838D01*
X130994559Y-77181910D01*
X130849569Y-77394110D01*
X130798560Y-77646000D01*
X130798560Y-78136000D01*
X130400000Y-78136000D01*
X130109161Y-78193852D01*
X129862599Y-78358599D01*
X128494599Y-79726599D01*
X128329852Y-79973161D01*
X128272000Y-80264000D01*
X128272000Y-86868000D01*
X128329852Y-87158839D01*
X128494599Y-87405401D01*
X129510599Y-88421401D01*
X129757161Y-88586148D01*
X130048000Y-88644000D01*
X131765198Y-88644000D01*
X132333474Y-89212276D01*
X132223000Y-89322750D01*
X132223000Y-90297000D01*
X132243000Y-90297000D01*
X132243000Y-90551000D01*
X132223000Y-90551000D01*
X132223000Y-91525250D01*
X132336000Y-91638250D01*
X132336000Y-92682560D01*
X131796000Y-92682560D01*
X131560683Y-92726838D01*
X131344559Y-92865910D01*
X131199569Y-93078110D01*
X131148560Y-93330000D01*
X131148560Y-94630000D01*
X131192838Y-94865317D01*
X131331910Y-95081441D01*
X131544110Y-95226431D01*
X131796000Y-95277440D01*
X132496000Y-95277440D01*
X132731317Y-95233162D01*
X132947441Y-95094090D01*
X133092431Y-94881890D01*
X133095081Y-94868803D01*
X133231910Y-95081441D01*
X133286000Y-95118399D01*
X133286000Y-96395243D01*
X133244559Y-96421910D01*
X133099569Y-96634110D01*
X133092809Y-96667490D01*
X133034327Y-96526301D01*
X132855698Y-96347673D01*
X132622309Y-96251000D01*
X132431750Y-96251000D01*
X132273000Y-96409750D01*
X132273000Y-97409000D01*
X132293000Y-97409000D01*
X132293000Y-97663000D01*
X132273000Y-97663000D01*
X132273000Y-98662250D01*
X132431750Y-98821000D01*
X132622309Y-98821000D01*
X132855698Y-98724327D01*
X133034327Y-98545699D01*
X133090654Y-98409713D01*
X133092838Y-98421317D01*
X133231910Y-98637441D01*
X133444110Y-98782431D01*
X133696000Y-98833440D01*
X134396000Y-98833440D01*
X134631317Y-98789162D01*
X134847441Y-98650090D01*
X134992431Y-98437890D01*
X135043440Y-98186000D01*
X135043440Y-96886000D01*
X134999162Y-96650683D01*
X134860090Y-96434559D01*
X134806000Y-96397601D01*
X134806000Y-95120757D01*
X134847441Y-95094090D01*
X134992431Y-94881890D01*
X135043440Y-94630000D01*
X135043440Y-94057362D01*
X139026052Y-90074750D01*
X142194000Y-90074750D01*
X142194000Y-90215310D01*
X142290673Y-90448699D01*
X142469302Y-90627327D01*
X142702691Y-90724000D01*
X143318250Y-90724000D01*
X143477000Y-90565250D01*
X143477000Y-89916000D01*
X142352750Y-89916000D01*
X142194000Y-90074750D01*
X139026052Y-90074750D01*
X139821802Y-89279000D01*
X142228666Y-89279000D01*
X142194000Y-89362690D01*
X142194000Y-89503250D01*
X142352750Y-89662000D01*
X143477000Y-89662000D01*
X143477000Y-89642000D01*
X143731000Y-89642000D01*
X143731000Y-89662000D01*
X143751000Y-89662000D01*
X143751000Y-89916000D01*
X143731000Y-89916000D01*
X143731000Y-90565250D01*
X143889750Y-90724000D01*
X144505309Y-90724000D01*
X144738698Y-90627327D01*
X144917327Y-90448699D01*
X145014000Y-90215310D01*
X145014000Y-90113215D01*
X145104000Y-90131440D01*
X147504000Y-90131440D01*
X147594000Y-90114505D01*
X147594000Y-90215310D01*
X147690673Y-90448699D01*
X147869302Y-90627327D01*
X148102691Y-90724000D01*
X148718250Y-90724000D01*
X148877000Y-90565250D01*
X148877000Y-89916000D01*
X149131000Y-89916000D01*
X149131000Y-90565250D01*
X149289750Y-90724000D01*
X149905309Y-90724000D01*
X150138698Y-90627327D01*
X150317327Y-90448699D01*
X150414000Y-90215310D01*
X150414000Y-90074750D01*
X150255250Y-89916000D01*
X149131000Y-89916000D01*
X148877000Y-89916000D01*
X148857000Y-89916000D01*
X148857000Y-89662000D01*
X148877000Y-89662000D01*
X148877000Y-89642000D01*
X149131000Y-89642000D01*
X149131000Y-89662000D01*
X150255250Y-89662000D01*
X150414000Y-89503250D01*
X150414000Y-89362690D01*
X150379334Y-89279000D01*
X151307800Y-89279000D01*
X151552834Y-89230259D01*
X151661657Y-89230354D01*
X151988520Y-89095297D01*
X152238818Y-88845436D01*
X152374446Y-88518809D01*
X152374754Y-88165143D01*
X152239697Y-87838280D01*
X151989836Y-87587982D01*
X151812469Y-87514333D01*
X152445401Y-86881401D01*
X152610148Y-86634840D01*
X152668000Y-86344000D01*
X152668000Y-86028057D01*
X154050846Y-86028057D01*
X154185903Y-86354920D01*
X154435764Y-86605218D01*
X154762391Y-86740846D01*
X155116057Y-86741154D01*
X155428634Y-86612000D01*
X155865962Y-86612000D01*
X155884838Y-86712317D01*
X156023910Y-86928441D01*
X156228000Y-87067890D01*
X156228000Y-87798437D01*
X156091569Y-87998110D01*
X156040560Y-88250000D01*
X156040560Y-89550000D01*
X156084838Y-89785317D01*
X156223910Y-90001441D01*
X156436110Y-90146431D01*
X156688000Y-90197440D01*
X157388000Y-90197440D01*
X157623317Y-90153162D01*
X157839441Y-90014090D01*
X157984431Y-89801890D01*
X157987081Y-89788803D01*
X158123910Y-90001441D01*
X158336110Y-90146431D01*
X158588000Y-90197440D01*
X159288000Y-90197440D01*
X159523317Y-90153162D01*
X159739441Y-90014090D01*
X159884431Y-89801890D01*
X159913164Y-89660000D01*
X161961962Y-89660000D01*
X161980838Y-89760317D01*
X162119910Y-89976441D01*
X162332110Y-90121431D01*
X162584000Y-90172440D01*
X163584000Y-90172440D01*
X163819317Y-90128162D01*
X164035441Y-89989090D01*
X164081969Y-89920994D01*
X164224302Y-90063327D01*
X164457691Y-90160000D01*
X164798250Y-90160000D01*
X164957000Y-90001250D01*
X164957000Y-89027000D01*
X165211000Y-89027000D01*
X165211000Y-90001250D01*
X165369750Y-90160000D01*
X165710309Y-90160000D01*
X165943698Y-90063327D01*
X166122327Y-89884699D01*
X166219000Y-89651310D01*
X166219000Y-89185750D01*
X166060250Y-89027000D01*
X165211000Y-89027000D01*
X164957000Y-89027000D01*
X164937000Y-89027000D01*
X164937000Y-88773000D01*
X164957000Y-88773000D01*
X164957000Y-87798750D01*
X165211000Y-87798750D01*
X165211000Y-88773000D01*
X166060250Y-88773000D01*
X166219000Y-88614250D01*
X166219000Y-88148690D01*
X166122327Y-87915301D01*
X165943698Y-87736673D01*
X165710309Y-87640000D01*
X165369750Y-87640000D01*
X165211000Y-87798750D01*
X164957000Y-87798750D01*
X164798250Y-87640000D01*
X164457691Y-87640000D01*
X164224302Y-87736673D01*
X164083064Y-87877910D01*
X164048090Y-87823559D01*
X163835890Y-87678569D01*
X163584000Y-87627560D01*
X162584000Y-87627560D01*
X162348683Y-87671838D01*
X162132559Y-87810910D01*
X161987569Y-88023110D01*
X161963898Y-88140000D01*
X159914742Y-88140000D01*
X159891162Y-88014683D01*
X159752090Y-87798559D01*
X159539890Y-87653569D01*
X159288000Y-87602560D01*
X158588000Y-87602560D01*
X158352683Y-87646838D01*
X158136559Y-87785910D01*
X157991569Y-87998110D01*
X157988919Y-88011197D01*
X157852090Y-87798559D01*
X157748000Y-87727437D01*
X157748000Y-87064279D01*
X157939441Y-86941090D01*
X157985969Y-86872994D01*
X158128302Y-87015327D01*
X158361691Y-87112000D01*
X158702250Y-87112000D01*
X158861000Y-86953250D01*
X158861000Y-85979000D01*
X159115000Y-85979000D01*
X159115000Y-86953250D01*
X159273750Y-87112000D01*
X159614309Y-87112000D01*
X159847698Y-87015327D01*
X160026327Y-86836699D01*
X160123000Y-86603310D01*
X160123000Y-86137750D01*
X159964250Y-85979000D01*
X159115000Y-85979000D01*
X158861000Y-85979000D01*
X158841000Y-85979000D01*
X158841000Y-85725000D01*
X158861000Y-85725000D01*
X158861000Y-84750750D01*
X159115000Y-84750750D01*
X159115000Y-85725000D01*
X159964250Y-85725000D01*
X160123000Y-85566250D01*
X160123000Y-85100690D01*
X160026327Y-84867301D01*
X159847698Y-84688673D01*
X159614309Y-84592000D01*
X159273750Y-84592000D01*
X159115000Y-84750750D01*
X158861000Y-84750750D01*
X158702250Y-84592000D01*
X158361691Y-84592000D01*
X158128302Y-84688673D01*
X157987064Y-84829910D01*
X157952090Y-84775559D01*
X157739890Y-84630569D01*
X157488000Y-84579560D01*
X156488000Y-84579560D01*
X156252683Y-84623838D01*
X156036559Y-84762910D01*
X155891569Y-84975110D01*
X155867898Y-85092000D01*
X155427903Y-85092000D01*
X155117609Y-84963154D01*
X154763943Y-84962846D01*
X154437080Y-85097903D01*
X154186782Y-85347764D01*
X154051154Y-85674391D01*
X154050846Y-86028057D01*
X152668000Y-86028057D01*
X152668000Y-84016279D01*
X152859441Y-83893090D01*
X152905969Y-83824994D01*
X153048302Y-83967327D01*
X153281691Y-84064000D01*
X153622250Y-84064000D01*
X153781000Y-83905250D01*
X153781000Y-82931000D01*
X154035000Y-82931000D01*
X154035000Y-83905250D01*
X154193750Y-84064000D01*
X154534309Y-84064000D01*
X154767698Y-83967327D01*
X154946327Y-83788699D01*
X155043000Y-83555310D01*
X155043000Y-83089750D01*
X154884250Y-82931000D01*
X154035000Y-82931000D01*
X153781000Y-82931000D01*
X153761000Y-82931000D01*
X153761000Y-82677000D01*
X153781000Y-82677000D01*
X153781000Y-81702750D01*
X154035000Y-81702750D01*
X154035000Y-82677000D01*
X154884250Y-82677000D01*
X155043000Y-82518250D01*
X155043000Y-82052690D01*
X154946327Y-81819301D01*
X154767698Y-81640673D01*
X154534309Y-81544000D01*
X154193750Y-81544000D01*
X154035000Y-81702750D01*
X153781000Y-81702750D01*
X153622250Y-81544000D01*
X153281691Y-81544000D01*
X153048302Y-81640673D01*
X152907064Y-81781910D01*
X152872090Y-81727559D01*
X152668000Y-81588110D01*
X152668000Y-79444279D01*
X152859441Y-79321090D01*
X152905969Y-79252994D01*
X153048302Y-79395327D01*
X153281691Y-79492000D01*
X153622250Y-79492000D01*
X153781000Y-79333250D01*
X153781000Y-78359000D01*
X154035000Y-78359000D01*
X154035000Y-79333250D01*
X154193750Y-79492000D01*
X154534309Y-79492000D01*
X154767698Y-79395327D01*
X154946327Y-79216699D01*
X155043000Y-78983310D01*
X155043000Y-78517750D01*
X154884250Y-78359000D01*
X154035000Y-78359000D01*
X153781000Y-78359000D01*
X153761000Y-78359000D01*
X153761000Y-78105000D01*
X153781000Y-78105000D01*
X153781000Y-77130750D01*
X154035000Y-77130750D01*
X154035000Y-78105000D01*
X154884250Y-78105000D01*
X155043000Y-77946250D01*
X155043000Y-77480690D01*
X154946327Y-77247301D01*
X154767698Y-77068673D01*
X154534309Y-76972000D01*
X154193750Y-76972000D01*
X154035000Y-77130750D01*
X153781000Y-77130750D01*
X153666000Y-77015750D01*
X153666000Y-72001440D01*
X154906000Y-72001440D01*
X155141317Y-71957162D01*
X155357441Y-71818090D01*
X155502431Y-71605890D01*
X155553440Y-71354000D01*
X155553440Y-70389750D01*
X156371000Y-70389750D01*
X156371000Y-71480310D01*
X156467673Y-71713699D01*
X156646302Y-71892327D01*
X156879691Y-71989000D01*
X158720250Y-71989000D01*
X158879000Y-71830250D01*
X158879000Y-70231000D01*
X159133000Y-70231000D01*
X159133000Y-71830250D01*
X159291750Y-71989000D01*
X161132309Y-71989000D01*
X161365698Y-71892327D01*
X161544327Y-71713699D01*
X161641000Y-71480310D01*
X161641000Y-70389750D01*
X161482250Y-70231000D01*
X159133000Y-70231000D01*
X158879000Y-70231000D01*
X156529750Y-70231000D01*
X156371000Y-70389750D01*
X155553440Y-70389750D01*
X155553440Y-68854000D01*
X155529674Y-68727690D01*
X156371000Y-68727690D01*
X156371000Y-69818250D01*
X156529750Y-69977000D01*
X158879000Y-69977000D01*
X158879000Y-68377750D01*
X159133000Y-68377750D01*
X159133000Y-69977000D01*
X161482250Y-69977000D01*
X161641000Y-69818250D01*
X161641000Y-68727690D01*
X161544327Y-68494301D01*
X161365698Y-68315673D01*
X161132309Y-68219000D01*
X159291750Y-68219000D01*
X159133000Y-68377750D01*
X158879000Y-68377750D01*
X158720250Y-68219000D01*
X156879691Y-68219000D01*
X156646302Y-68315673D01*
X156467673Y-68494301D01*
X156371000Y-68727690D01*
X155529674Y-68727690D01*
X155509162Y-68618683D01*
X155370090Y-68402559D01*
X155157890Y-68257569D01*
X154906000Y-68206560D01*
X152083362Y-68206560D01*
X150620000Y-66743198D01*
X150620000Y-62372648D01*
X151130000Y-62474093D01*
X151698285Y-62361054D01*
X152180054Y-62039147D01*
X152400000Y-61709974D01*
X152619946Y-62039147D01*
X153101715Y-62361054D01*
X153670000Y-62474093D01*
X154238285Y-62361054D01*
X154720054Y-62039147D01*
X154940000Y-61709974D01*
X155159946Y-62039147D01*
X155641715Y-62361054D01*
X156210000Y-62474093D01*
X156778285Y-62361054D01*
X157260054Y-62039147D01*
X157480000Y-61709974D01*
X157699946Y-62039147D01*
X158181715Y-62361054D01*
X158750000Y-62474093D01*
X159318285Y-62361054D01*
X159800054Y-62039147D01*
X160020000Y-61709974D01*
X160239946Y-62039147D01*
X160721715Y-62361054D01*
X161290000Y-62474093D01*
X161858285Y-62361054D01*
X162340054Y-62039147D01*
X162560000Y-61709974D01*
X162779946Y-62039147D01*
X163261715Y-62361054D01*
X163830000Y-62474093D01*
X164398285Y-62361054D01*
X164880054Y-62039147D01*
X165100000Y-61709974D01*
X165319946Y-62039147D01*
X165801715Y-62361054D01*
X166370000Y-62474093D01*
X166938285Y-62361054D01*
X167420054Y-62039147D01*
X167640000Y-61709974D01*
X167859946Y-62039147D01*
X168341715Y-62361054D01*
X168910000Y-62474093D01*
X169478285Y-62361054D01*
X169960054Y-62039147D01*
X170180000Y-61709974D01*
X170399946Y-62039147D01*
X170881715Y-62361054D01*
X171450000Y-62474093D01*
X172018285Y-62361054D01*
X172500054Y-62039147D01*
X172720000Y-61709974D01*
X172939946Y-62039147D01*
X173421715Y-62361054D01*
X173990000Y-62474093D01*
X174558285Y-62361054D01*
X175040054Y-62039147D01*
X175260000Y-61709974D01*
X175479946Y-62039147D01*
X175961715Y-62361054D01*
X176530000Y-62474093D01*
X177098285Y-62361054D01*
X177580054Y-62039147D01*
X177800000Y-61709974D01*
X178019946Y-62039147D01*
X178501715Y-62361054D01*
X179070000Y-62474093D01*
X179638285Y-62361054D01*
X180120054Y-62039147D01*
X180340000Y-61709974D01*
X180559946Y-62039147D01*
X181041715Y-62361054D01*
X181610000Y-62474093D01*
X182178285Y-62361054D01*
X182660054Y-62039147D01*
X182981961Y-61557378D01*
X183095000Y-60989093D01*
X183095000Y-60930907D01*
X182981961Y-60362622D01*
X182660054Y-59880853D01*
X182374422Y-59690000D01*
X182660054Y-59499147D01*
X182981961Y-59017378D01*
X183095000Y-58449093D01*
X183095000Y-58390907D01*
X182981961Y-57822622D01*
X182660054Y-57340853D01*
X182374418Y-57149997D01*
X182660054Y-56959142D01*
X182981961Y-56477373D01*
X183095000Y-55909088D01*
X183095000Y-55850902D01*
X182981961Y-55282617D01*
X182660054Y-54800848D01*
X182374422Y-54609995D01*
X182660054Y-54419142D01*
X182981961Y-53937373D01*
X183095000Y-53369088D01*
X183095000Y-53310902D01*
X182981961Y-52742617D01*
X182660054Y-52260848D01*
X182178285Y-51938941D01*
X181610000Y-51825902D01*
X181041715Y-51938941D01*
X180559946Y-52260848D01*
X180340000Y-52590021D01*
X180120054Y-52260848D01*
X179638285Y-51938941D01*
X179070000Y-51825902D01*
X178501715Y-51938941D01*
X178019946Y-52260848D01*
X177792298Y-52601548D01*
X177725183Y-52458637D01*
X177296924Y-52068350D01*
X176886890Y-51898519D01*
X176657000Y-52019840D01*
X176657000Y-53212995D01*
X176677000Y-53212995D01*
X176677000Y-53466995D01*
X176657000Y-53466995D01*
X176657000Y-55752995D01*
X176677000Y-55752995D01*
X176677000Y-56006995D01*
X176657000Y-56006995D01*
X176657000Y-56026995D01*
X176403000Y-56026995D01*
X176403000Y-56006995D01*
X176383000Y-56006995D01*
X176383000Y-55752995D01*
X176403000Y-55752995D01*
X176403000Y-53466995D01*
X176383000Y-53466995D01*
X176383000Y-53212995D01*
X176403000Y-53212995D01*
X176403000Y-52019840D01*
X176173110Y-51898519D01*
X175763076Y-52068350D01*
X175334817Y-52458637D01*
X175267702Y-52601548D01*
X175040054Y-52260848D01*
X174558285Y-51938941D01*
X173990000Y-51825902D01*
X173421715Y-51938941D01*
X172939946Y-52260848D01*
X172720000Y-52590021D01*
X172500054Y-52260848D01*
X172018285Y-51938941D01*
X171450000Y-51825902D01*
X170881715Y-51938941D01*
X170399946Y-52260848D01*
X170180000Y-52590021D01*
X169960054Y-52260848D01*
X169478285Y-51938941D01*
X168910000Y-51825902D01*
X168341715Y-51938941D01*
X167859946Y-52260848D01*
X167640000Y-52590021D01*
X167420054Y-52260848D01*
X166938285Y-51938941D01*
X166370000Y-51825902D01*
X165801715Y-51938941D01*
X165319946Y-52260848D01*
X165100000Y-52590021D01*
X164880054Y-52260848D01*
X164398285Y-51938941D01*
X163830000Y-51825902D01*
X163261715Y-51938941D01*
X162779946Y-52260848D01*
X162560000Y-52590021D01*
X162340054Y-52260848D01*
X161858285Y-51938941D01*
X161640751Y-51895671D01*
X161662315Y-51862159D01*
X161671000Y-51816000D01*
X161671000Y-49403000D01*
X188338146Y-49403000D01*
X188285442Y-51774699D01*
X187957679Y-51446364D01*
X187136519Y-51105389D01*
X186247381Y-51104613D01*
X185425628Y-51444155D01*
X184796364Y-52072321D01*
X184455389Y-52893481D01*
X184454613Y-53782619D01*
X184794155Y-54604372D01*
X185422321Y-55233636D01*
X186243481Y-55574611D01*
X187132619Y-55575387D01*
X187954372Y-55235845D01*
X188214293Y-54976377D01*
X187833031Y-72133178D01*
X187841937Y-72182799D01*
X187869446Y-72225045D01*
X187911224Y-72253260D01*
X187960000Y-72263000D01*
X192913000Y-72263000D01*
X192913000Y-142621000D01*
X161671000Y-142621000D01*
X161671000Y-140208000D01*
X161660994Y-140158590D01*
X161632553Y-140116965D01*
X161590159Y-140089685D01*
X161544000Y-140081000D01*
X139192000Y-140081000D01*
X139142590Y-140091006D01*
X139100965Y-140119447D01*
X139073685Y-140161841D01*
X139065000Y-140208000D01*
X139065000Y-142621000D01*
X105283000Y-142621000D01*
X105283000Y-139512619D01*
X106984613Y-139512619D01*
X107324155Y-140334372D01*
X107952321Y-140963636D01*
X108773481Y-141304611D01*
X109662619Y-141305387D01*
X110484372Y-140965845D01*
X111113636Y-140337679D01*
X111454611Y-139516519D01*
X111454614Y-139512619D01*
X186994613Y-139512619D01*
X187334155Y-140334372D01*
X187962321Y-140963636D01*
X188783481Y-141304611D01*
X189672619Y-141305387D01*
X190494372Y-140965845D01*
X191123636Y-140337679D01*
X191464611Y-139516519D01*
X191465387Y-138627381D01*
X191125845Y-137805628D01*
X190497679Y-137176364D01*
X189676519Y-136835389D01*
X188787381Y-136834613D01*
X187965628Y-137174155D01*
X187336364Y-137802321D01*
X186995389Y-138623481D01*
X186994613Y-139512619D01*
X111454614Y-139512619D01*
X111455387Y-138627381D01*
X111115845Y-137805628D01*
X110487679Y-137176364D01*
X109666519Y-136835389D01*
X108777381Y-136834613D01*
X107955628Y-137174155D01*
X107326364Y-137802321D01*
X106985389Y-138623481D01*
X106984613Y-139512619D01*
X105283000Y-139512619D01*
X105283000Y-107823000D01*
X107188000Y-107823000D01*
X107237410Y-107812994D01*
X107279035Y-107784553D01*
X107306315Y-107742159D01*
X107315000Y-107696000D01*
X107315000Y-84836000D01*
X107304994Y-84786590D01*
X107276553Y-84744965D01*
X107234159Y-84717685D01*
X107188000Y-84709000D01*
X105283000Y-84709000D01*
X105283000Y-53782619D01*
X110794613Y-53782619D01*
X111134155Y-54604372D01*
X111762321Y-55233636D01*
X112583481Y-55574611D01*
X113472619Y-55575387D01*
X114294372Y-55235845D01*
X114923636Y-54607679D01*
X115264611Y-53786519D01*
X115265387Y-52897381D01*
X114925845Y-52075628D01*
X114297679Y-51446364D01*
X113476519Y-51105389D01*
X112587381Y-51104613D01*
X111765628Y-51444155D01*
X111136364Y-52072321D01*
X110795389Y-52893481D01*
X110794613Y-53782619D01*
X105283000Y-53782619D01*
X105283000Y-49403000D01*
X138557000Y-49403000D01*
X138557000Y-51816000D01*
X138557000Y-51816000D01*
G37*
X138557000Y-51816000D02*
X138564420Y-51852640D01*
X138430000Y-51825902D01*
X137861715Y-51938941D01*
X137379946Y-52260848D01*
X137160000Y-52590021D01*
X136940054Y-52260848D01*
X136458285Y-51938941D01*
X135890000Y-51825902D01*
X135321715Y-51938941D01*
X134839946Y-52260848D01*
X134612298Y-52601548D01*
X134545183Y-52458637D01*
X134116924Y-52068350D01*
X133706890Y-51898519D01*
X133477000Y-52019840D01*
X133477000Y-53212995D01*
X133497000Y-53212995D01*
X133497000Y-53466995D01*
X133477000Y-53466995D01*
X133477000Y-53486995D01*
X133223000Y-53486995D01*
X133223000Y-53466995D01*
X133203000Y-53466995D01*
X133203000Y-53212995D01*
X133223000Y-53212995D01*
X133223000Y-52019840D01*
X132993110Y-51898519D01*
X132583076Y-52068350D01*
X132154817Y-52458637D01*
X132087702Y-52601548D01*
X131860054Y-52260848D01*
X131378285Y-51938941D01*
X130810000Y-51825902D01*
X130241715Y-51938941D01*
X129759946Y-52260848D01*
X129540000Y-52590021D01*
X129320054Y-52260848D01*
X128838285Y-51938941D01*
X128270000Y-51825902D01*
X127701715Y-51938941D01*
X127219946Y-52260848D01*
X127000000Y-52590021D01*
X126780054Y-52260848D01*
X126298285Y-51938941D01*
X125730000Y-51825902D01*
X125161715Y-51938941D01*
X124679946Y-52260848D01*
X124460000Y-52590021D01*
X124240054Y-52260848D01*
X123758285Y-51938941D01*
X123190000Y-51825902D01*
X122621715Y-51938941D01*
X122139946Y-52260848D01*
X121920000Y-52590021D01*
X121700054Y-52260848D01*
X121218285Y-51938941D01*
X120650000Y-51825902D01*
X120081715Y-51938941D01*
X119599946Y-52260848D01*
X119380000Y-52590021D01*
X119160054Y-52260848D01*
X118678285Y-51938941D01*
X118110000Y-51825902D01*
X117541715Y-51938941D01*
X117059946Y-52260848D01*
X116738039Y-52742617D01*
X116625000Y-53310902D01*
X116625000Y-53369088D01*
X116738039Y-53937373D01*
X117059946Y-54419142D01*
X117061179Y-54419966D01*
X117024683Y-54426833D01*
X116808559Y-54565905D01*
X116663569Y-54778105D01*
X116612560Y-55029995D01*
X116612560Y-55540638D01*
X114778599Y-57374599D01*
X114613852Y-57621161D01*
X114556000Y-57912000D01*
X114556000Y-59944000D01*
X114613852Y-60234839D01*
X114778599Y-60481401D01*
X115794599Y-61497401D01*
X116041161Y-61662148D01*
X116332000Y-61720000D01*
X116612560Y-61720000D01*
X116612560Y-61810000D01*
X116656838Y-62045317D01*
X116795910Y-62261441D01*
X117008110Y-62406431D01*
X117260000Y-62457440D01*
X117350000Y-62457440D01*
X117350000Y-111506000D01*
X117407852Y-111796839D01*
X117572599Y-112043401D01*
X120593198Y-115064000D01*
X115122802Y-115064000D01*
X113765440Y-113706638D01*
X113765440Y-112434000D01*
X113721162Y-112198683D01*
X113582090Y-111982559D01*
X113369890Y-111837569D01*
X113302459Y-111823914D01*
X113347147Y-111794054D01*
X113669054Y-111312285D01*
X113782093Y-110744000D01*
X113669054Y-110175715D01*
X113347147Y-109693946D01*
X112865378Y-109372039D01*
X112297093Y-109259000D01*
X112238907Y-109259000D01*
X111670622Y-109372039D01*
X111188853Y-109693946D01*
X110866946Y-110175715D01*
X110753907Y-110744000D01*
X110866946Y-111312285D01*
X111188853Y-111794054D01*
X111230452Y-111821850D01*
X111182683Y-111830838D01*
X110966559Y-111969910D01*
X110821569Y-112182110D01*
X110770560Y-112434000D01*
X110770560Y-114134000D01*
X110814838Y-114369317D01*
X110953910Y-114585441D01*
X111166110Y-114730431D01*
X111418000Y-114781440D01*
X112690638Y-114781440D01*
X114270599Y-116361401D01*
X114517160Y-116526148D01*
X114565414Y-116535746D01*
X114808000Y-116584000D01*
X123154560Y-116584000D01*
X123154560Y-116799000D01*
X122750750Y-116799000D01*
X122592000Y-116957750D01*
X122592000Y-117050309D01*
X122688673Y-117283698D01*
X122867301Y-117462327D01*
X123100690Y-117559000D01*
X123162000Y-117559000D01*
X123282174Y-117438826D01*
X123287498Y-117447100D01*
X123287498Y-117559000D01*
X123387025Y-117559000D01*
X123550110Y-117670431D01*
X123802000Y-117721440D01*
X124102000Y-117721440D01*
X124337317Y-117677162D01*
X124501614Y-117571440D01*
X124677000Y-117571440D01*
X124912317Y-117527162D01*
X125128441Y-117388090D01*
X125273431Y-117175890D01*
X125324440Y-116924000D01*
X125324440Y-116424000D01*
X125280162Y-116188683D01*
X125141090Y-115972559D01*
X124928890Y-115827569D01*
X124915803Y-115824919D01*
X125128441Y-115688090D01*
X125273431Y-115475890D01*
X125324440Y-115224000D01*
X125324440Y-114724000D01*
X125280162Y-114488683D01*
X125141090Y-114272559D01*
X124928890Y-114127569D01*
X124677000Y-114076560D01*
X124498768Y-114076560D01*
X124353890Y-113977569D01*
X124102000Y-113926560D01*
X123802000Y-113926560D01*
X123566683Y-113970838D01*
X123428006Y-114060074D01*
X123219000Y-114018500D01*
X121697302Y-114018500D01*
X121150743Y-113471941D01*
X121350001Y-113338801D01*
X123663362Y-111025440D01*
X124236000Y-111025440D01*
X124471317Y-110981162D01*
X124687441Y-110842090D01*
X124832431Y-110629890D01*
X124883440Y-110378000D01*
X124883440Y-109078000D01*
X124839162Y-108842683D01*
X124700090Y-108626559D01*
X124487890Y-108481569D01*
X124236000Y-108430560D01*
X123536000Y-108430560D01*
X123300683Y-108474838D01*
X123084559Y-108613910D01*
X122939569Y-108826110D01*
X122936919Y-108839197D01*
X122800090Y-108626559D01*
X122746000Y-108589601D01*
X122746000Y-107927440D01*
X122944000Y-107927440D01*
X123179317Y-107883162D01*
X123395441Y-107744090D01*
X123441969Y-107675994D01*
X123584302Y-107818327D01*
X123817691Y-107915000D01*
X124258250Y-107915000D01*
X124417000Y-107756250D01*
X124417000Y-106807000D01*
X124671000Y-106807000D01*
X124671000Y-107756250D01*
X124829750Y-107915000D01*
X125270309Y-107915000D01*
X125503698Y-107818327D01*
X125682327Y-107639699D01*
X125779000Y-107406310D01*
X125779000Y-106965750D01*
X125620250Y-106807000D01*
X124671000Y-106807000D01*
X124417000Y-106807000D01*
X124397000Y-106807000D01*
X124397000Y-106553000D01*
X124417000Y-106553000D01*
X124417000Y-105603750D01*
X124671000Y-105603750D01*
X124671000Y-106553000D01*
X125620250Y-106553000D01*
X125779000Y-106394250D01*
X125779000Y-105953690D01*
X125682327Y-105720301D01*
X125503698Y-105541673D01*
X125270309Y-105445000D01*
X124829750Y-105445000D01*
X124671000Y-105603750D01*
X124417000Y-105603750D01*
X124258250Y-105445000D01*
X123817691Y-105445000D01*
X123584302Y-105541673D01*
X123443064Y-105682910D01*
X123408090Y-105628559D01*
X123195890Y-105483569D01*
X122944000Y-105432560D01*
X121744000Y-105432560D01*
X121508683Y-105476838D01*
X121292559Y-105615910D01*
X121147569Y-105828110D01*
X121096560Y-106080000D01*
X121096560Y-107280000D01*
X121140838Y-107515317D01*
X121226000Y-107647662D01*
X121226000Y-108587243D01*
X121184559Y-108613910D01*
X121039569Y-108826110D01*
X120988560Y-109078000D01*
X120988560Y-110378000D01*
X121032838Y-110613317D01*
X121171910Y-110829441D01*
X121384110Y-110974431D01*
X121534344Y-111004854D01*
X120497798Y-112041400D01*
X119720202Y-112041400D01*
X118870000Y-111191198D01*
X118870000Y-97821750D01*
X131161000Y-97821750D01*
X131161000Y-98312310D01*
X131257673Y-98545699D01*
X131436302Y-98724327D01*
X131669691Y-98821000D01*
X131860250Y-98821000D01*
X132019000Y-98662250D01*
X132019000Y-97663000D01*
X131319750Y-97663000D01*
X131161000Y-97821750D01*
X118870000Y-97821750D01*
X118870000Y-96759690D01*
X131161000Y-96759690D01*
X131161000Y-97250250D01*
X131319750Y-97409000D01*
X132019000Y-97409000D01*
X132019000Y-96409750D01*
X131860250Y-96251000D01*
X131669691Y-96251000D01*
X131436302Y-96347673D01*
X131257673Y-96526301D01*
X131161000Y-96759690D01*
X118870000Y-96759690D01*
X118870000Y-90709750D01*
X130961000Y-90709750D01*
X130961000Y-91175310D01*
X131057673Y-91408699D01*
X131236302Y-91587327D01*
X131469691Y-91684000D01*
X131810250Y-91684000D01*
X131969000Y-91525250D01*
X131969000Y-90551000D01*
X131119750Y-90551000D01*
X130961000Y-90709750D01*
X118870000Y-90709750D01*
X118870000Y-89672690D01*
X130961000Y-89672690D01*
X130961000Y-90138250D01*
X131119750Y-90297000D01*
X131969000Y-90297000D01*
X131969000Y-89322750D01*
X131810250Y-89164000D01*
X131469691Y-89164000D01*
X131236302Y-89260673D01*
X131057673Y-89439301D01*
X130961000Y-89672690D01*
X118870000Y-89672690D01*
X118870000Y-70389750D01*
X133507000Y-70389750D01*
X133507000Y-71480310D01*
X133603673Y-71713699D01*
X133782302Y-71892327D01*
X134015691Y-71989000D01*
X135856250Y-71989000D01*
X136015000Y-71830250D01*
X136015000Y-70231000D01*
X136269000Y-70231000D01*
X136269000Y-71830250D01*
X136427750Y-71989000D01*
X138268309Y-71989000D01*
X138501698Y-71892327D01*
X138680327Y-71713699D01*
X138777000Y-71480310D01*
X138777000Y-70389750D01*
X138618250Y-70231000D01*
X136269000Y-70231000D01*
X136015000Y-70231000D01*
X133665750Y-70231000D01*
X133507000Y-70389750D01*
X118870000Y-70389750D01*
X118870000Y-68727690D01*
X133507000Y-68727690D01*
X133507000Y-69818250D01*
X133665750Y-69977000D01*
X136015000Y-69977000D01*
X136015000Y-68377750D01*
X136269000Y-68377750D01*
X136269000Y-69977000D01*
X138618250Y-69977000D01*
X138777000Y-69818250D01*
X138777000Y-68727690D01*
X138680327Y-68494301D01*
X138501698Y-68315673D01*
X138268309Y-68219000D01*
X136427750Y-68219000D01*
X136269000Y-68377750D01*
X136015000Y-68377750D01*
X135856250Y-68219000D01*
X134015691Y-68219000D01*
X133782302Y-68315673D01*
X133603673Y-68494301D01*
X133507000Y-68727690D01*
X118870000Y-68727690D01*
X118870000Y-62457440D01*
X118960000Y-62457440D01*
X119195317Y-62413162D01*
X119411441Y-62274090D01*
X119556431Y-62061890D01*
X119570086Y-61994459D01*
X119599946Y-62039147D01*
X120081715Y-62361054D01*
X120650000Y-62474093D01*
X121218285Y-62361054D01*
X121700054Y-62039147D01*
X121920000Y-61709974D01*
X122139946Y-62039147D01*
X122621715Y-62361054D01*
X123190000Y-62474093D01*
X123758285Y-62361054D01*
X124240054Y-62039147D01*
X124460000Y-61709974D01*
X124679946Y-62039147D01*
X125161715Y-62361054D01*
X125730000Y-62474093D01*
X126298285Y-62361054D01*
X126780054Y-62039147D01*
X127000000Y-61709974D01*
X127219946Y-62039147D01*
X127701715Y-62361054D01*
X128270000Y-62474093D01*
X128838285Y-62361054D01*
X129320054Y-62039147D01*
X129540000Y-61709974D01*
X129759946Y-62039147D01*
X130241715Y-62361054D01*
X130810000Y-62474093D01*
X131378285Y-62361054D01*
X131860054Y-62039147D01*
X132080000Y-61709974D01*
X132299946Y-62039147D01*
X132781715Y-62361054D01*
X133350000Y-62474093D01*
X133918285Y-62361054D01*
X134400054Y-62039147D01*
X134620000Y-61709974D01*
X134839946Y-62039147D01*
X135321715Y-62361054D01*
X135890000Y-62474093D01*
X136458285Y-62361054D01*
X136940054Y-62039147D01*
X137160000Y-61709974D01*
X137379946Y-62039147D01*
X137861715Y-62361054D01*
X138430000Y-62474093D01*
X138998285Y-62361054D01*
X139480054Y-62039147D01*
X139700000Y-61709974D01*
X139919946Y-62039147D01*
X140401715Y-62361054D01*
X140970000Y-62474093D01*
X141482000Y-62372250D01*
X141482000Y-68206560D01*
X140242000Y-68206560D01*
X140006683Y-68250838D01*
X139790559Y-68389910D01*
X139645569Y-68602110D01*
X139594560Y-68854000D01*
X139594560Y-71354000D01*
X139638838Y-71589317D01*
X139777910Y-71805441D01*
X139990110Y-71950431D01*
X140242000Y-72001440D01*
X141464000Y-72001440D01*
X141464000Y-77019721D01*
X141272559Y-77142910D01*
X141226031Y-77211006D01*
X141083698Y-77068673D01*
X140850309Y-76972000D01*
X140509750Y-76972000D01*
X140351000Y-77130750D01*
X140351000Y-78105000D01*
X140371000Y-78105000D01*
X140371000Y-78359000D01*
X140351000Y-78359000D01*
X140351000Y-79333250D01*
X140509750Y-79492000D01*
X140850309Y-79492000D01*
X141083698Y-79395327D01*
X141224936Y-79254090D01*
X141259910Y-79308441D01*
X141464000Y-79447890D01*
X141464000Y-79457198D01*
X140909198Y-80012000D01*
X135393440Y-80012000D01*
X135393440Y-78517750D01*
X139089000Y-78517750D01*
X139089000Y-78983310D01*
X139185673Y-79216699D01*
X139364302Y-79395327D01*
X139597691Y-79492000D01*
X139938250Y-79492000D01*
X140097000Y-79333250D01*
X140097000Y-78359000D01*
X139247750Y-78359000D01*
X139089000Y-78517750D01*
X135393440Y-78517750D01*
X135393440Y-77646000D01*
X135362335Y-77480690D01*
X139089000Y-77480690D01*
X139089000Y-77946250D01*
X139247750Y-78105000D01*
X140097000Y-78105000D01*
X140097000Y-77130750D01*
X139938250Y-76972000D01*
X139597691Y-76972000D01*
X139364302Y-77068673D01*
X139185673Y-77247301D01*
X139089000Y-77480690D01*
X135362335Y-77480690D01*
X135349162Y-77410683D01*
X135210090Y-77194559D01*
X134997890Y-77049569D01*
X134746000Y-76998560D01*
X131446000Y-76998560D01*
X131210683Y-77042838D01*
X130994559Y-77181910D01*
X130849569Y-77394110D01*
X130798560Y-77646000D01*
X130798560Y-78136000D01*
X130400000Y-78136000D01*
X130109161Y-78193852D01*
X129862599Y-78358599D01*
X128494599Y-79726599D01*
X128329852Y-79973161D01*
X128272000Y-80264000D01*
X128272000Y-86868000D01*
X128329852Y-87158839D01*
X128494599Y-87405401D01*
X129510599Y-88421401D01*
X129757161Y-88586148D01*
X130048000Y-88644000D01*
X131765198Y-88644000D01*
X132333474Y-89212276D01*
X132223000Y-89322750D01*
X132223000Y-90297000D01*
X132243000Y-90297000D01*
X132243000Y-90551000D01*
X132223000Y-90551000D01*
X132223000Y-91525250D01*
X132336000Y-91638250D01*
X132336000Y-92682560D01*
X131796000Y-92682560D01*
X131560683Y-92726838D01*
X131344559Y-92865910D01*
X131199569Y-93078110D01*
X131148560Y-93330000D01*
X131148560Y-94630000D01*
X131192838Y-94865317D01*
X131331910Y-95081441D01*
X131544110Y-95226431D01*
X131796000Y-95277440D01*
X132496000Y-95277440D01*
X132731317Y-95233162D01*
X132947441Y-95094090D01*
X133092431Y-94881890D01*
X133095081Y-94868803D01*
X133231910Y-95081441D01*
X133286000Y-95118399D01*
X133286000Y-96395243D01*
X133244559Y-96421910D01*
X133099569Y-96634110D01*
X133092809Y-96667490D01*
X133034327Y-96526301D01*
X132855698Y-96347673D01*
X132622309Y-96251000D01*
X132431750Y-96251000D01*
X132273000Y-96409750D01*
X132273000Y-97409000D01*
X132293000Y-97409000D01*
X132293000Y-97663000D01*
X132273000Y-97663000D01*
X132273000Y-98662250D01*
X132431750Y-98821000D01*
X132622309Y-98821000D01*
X132855698Y-98724327D01*
X133034327Y-98545699D01*
X133090654Y-98409713D01*
X133092838Y-98421317D01*
X133231910Y-98637441D01*
X133444110Y-98782431D01*
X133696000Y-98833440D01*
X134396000Y-98833440D01*
X134631317Y-98789162D01*
X134847441Y-98650090D01*
X134992431Y-98437890D01*
X135043440Y-98186000D01*
X135043440Y-96886000D01*
X134999162Y-96650683D01*
X134860090Y-96434559D01*
X134806000Y-96397601D01*
X134806000Y-95120757D01*
X134847441Y-95094090D01*
X134992431Y-94881890D01*
X135043440Y-94630000D01*
X135043440Y-94057362D01*
X139026052Y-90074750D01*
X142194000Y-90074750D01*
X142194000Y-90215310D01*
X142290673Y-90448699D01*
X142469302Y-90627327D01*
X142702691Y-90724000D01*
X143318250Y-90724000D01*
X143477000Y-90565250D01*
X143477000Y-89916000D01*
X142352750Y-89916000D01*
X142194000Y-90074750D01*
X139026052Y-90074750D01*
X139821802Y-89279000D01*
X142228666Y-89279000D01*
X142194000Y-89362690D01*
X142194000Y-89503250D01*
X142352750Y-89662000D01*
X143477000Y-89662000D01*
X143477000Y-89642000D01*
X143731000Y-89642000D01*
X143731000Y-89662000D01*
X143751000Y-89662000D01*
X143751000Y-89916000D01*
X143731000Y-89916000D01*
X143731000Y-90565250D01*
X143889750Y-90724000D01*
X144505309Y-90724000D01*
X144738698Y-90627327D01*
X144917327Y-90448699D01*
X145014000Y-90215310D01*
X145014000Y-90113215D01*
X145104000Y-90131440D01*
X147504000Y-90131440D01*
X147594000Y-90114505D01*
X147594000Y-90215310D01*
X147690673Y-90448699D01*
X147869302Y-90627327D01*
X148102691Y-90724000D01*
X148718250Y-90724000D01*
X148877000Y-90565250D01*
X148877000Y-89916000D01*
X149131000Y-89916000D01*
X149131000Y-90565250D01*
X149289750Y-90724000D01*
X149905309Y-90724000D01*
X150138698Y-90627327D01*
X150317327Y-90448699D01*
X150414000Y-90215310D01*
X150414000Y-90074750D01*
X150255250Y-89916000D01*
X149131000Y-89916000D01*
X148877000Y-89916000D01*
X148857000Y-89916000D01*
X148857000Y-89662000D01*
X148877000Y-89662000D01*
X148877000Y-89642000D01*
X149131000Y-89642000D01*
X149131000Y-89662000D01*
X150255250Y-89662000D01*
X150414000Y-89503250D01*
X150414000Y-89362690D01*
X150379334Y-89279000D01*
X151307800Y-89279000D01*
X151552834Y-89230259D01*
X151661657Y-89230354D01*
X151988520Y-89095297D01*
X152238818Y-88845436D01*
X152374446Y-88518809D01*
X152374754Y-88165143D01*
X152239697Y-87838280D01*
X151989836Y-87587982D01*
X151812469Y-87514333D01*
X152445401Y-86881401D01*
X152610148Y-86634840D01*
X152668000Y-86344000D01*
X152668000Y-86028057D01*
X154050846Y-86028057D01*
X154185903Y-86354920D01*
X154435764Y-86605218D01*
X154762391Y-86740846D01*
X155116057Y-86741154D01*
X155428634Y-86612000D01*
X155865962Y-86612000D01*
X155884838Y-86712317D01*
X156023910Y-86928441D01*
X156228000Y-87067890D01*
X156228000Y-87798437D01*
X156091569Y-87998110D01*
X156040560Y-88250000D01*
X156040560Y-89550000D01*
X156084838Y-89785317D01*
X156223910Y-90001441D01*
X156436110Y-90146431D01*
X156688000Y-90197440D01*
X157388000Y-90197440D01*
X157623317Y-90153162D01*
X157839441Y-90014090D01*
X157984431Y-89801890D01*
X157987081Y-89788803D01*
X158123910Y-90001441D01*
X158336110Y-90146431D01*
X158588000Y-90197440D01*
X159288000Y-90197440D01*
X159523317Y-90153162D01*
X159739441Y-90014090D01*
X159884431Y-89801890D01*
X159913164Y-89660000D01*
X161961962Y-89660000D01*
X161980838Y-89760317D01*
X162119910Y-89976441D01*
X162332110Y-90121431D01*
X162584000Y-90172440D01*
X163584000Y-90172440D01*
X163819317Y-90128162D01*
X164035441Y-89989090D01*
X164081969Y-89920994D01*
X164224302Y-90063327D01*
X164457691Y-90160000D01*
X164798250Y-90160000D01*
X164957000Y-90001250D01*
X164957000Y-89027000D01*
X165211000Y-89027000D01*
X165211000Y-90001250D01*
X165369750Y-90160000D01*
X165710309Y-90160000D01*
X165943698Y-90063327D01*
X166122327Y-89884699D01*
X166219000Y-89651310D01*
X166219000Y-89185750D01*
X166060250Y-89027000D01*
X165211000Y-89027000D01*
X164957000Y-89027000D01*
X164937000Y-89027000D01*
X164937000Y-88773000D01*
X164957000Y-88773000D01*
X164957000Y-87798750D01*
X165211000Y-87798750D01*
X165211000Y-88773000D01*
X166060250Y-88773000D01*
X166219000Y-88614250D01*
X166219000Y-88148690D01*
X166122327Y-87915301D01*
X165943698Y-87736673D01*
X165710309Y-87640000D01*
X165369750Y-87640000D01*
X165211000Y-87798750D01*
X164957000Y-87798750D01*
X164798250Y-87640000D01*
X164457691Y-87640000D01*
X164224302Y-87736673D01*
X164083064Y-87877910D01*
X164048090Y-87823559D01*
X163835890Y-87678569D01*
X163584000Y-87627560D01*
X162584000Y-87627560D01*
X162348683Y-87671838D01*
X162132559Y-87810910D01*
X161987569Y-88023110D01*
X161963898Y-88140000D01*
X159914742Y-88140000D01*
X159891162Y-88014683D01*
X159752090Y-87798559D01*
X159539890Y-87653569D01*
X159288000Y-87602560D01*
X158588000Y-87602560D01*
X158352683Y-87646838D01*
X158136559Y-87785910D01*
X157991569Y-87998110D01*
X157988919Y-88011197D01*
X157852090Y-87798559D01*
X157748000Y-87727437D01*
X157748000Y-87064279D01*
X157939441Y-86941090D01*
X157985969Y-86872994D01*
X158128302Y-87015327D01*
X158361691Y-87112000D01*
X158702250Y-87112000D01*
X158861000Y-86953250D01*
X158861000Y-85979000D01*
X159115000Y-85979000D01*
X159115000Y-86953250D01*
X159273750Y-87112000D01*
X159614309Y-87112000D01*
X159847698Y-87015327D01*
X160026327Y-86836699D01*
X160123000Y-86603310D01*
X160123000Y-86137750D01*
X159964250Y-85979000D01*
X159115000Y-85979000D01*
X158861000Y-85979000D01*
X158841000Y-85979000D01*
X158841000Y-85725000D01*
X158861000Y-85725000D01*
X158861000Y-84750750D01*
X159115000Y-84750750D01*
X159115000Y-85725000D01*
X159964250Y-85725000D01*
X160123000Y-85566250D01*
X160123000Y-85100690D01*
X160026327Y-84867301D01*
X159847698Y-84688673D01*
X159614309Y-84592000D01*
X159273750Y-84592000D01*
X159115000Y-84750750D01*
X158861000Y-84750750D01*
X158702250Y-84592000D01*
X158361691Y-84592000D01*
X158128302Y-84688673D01*
X157987064Y-84829910D01*
X157952090Y-84775559D01*
X157739890Y-84630569D01*
X157488000Y-84579560D01*
X156488000Y-84579560D01*
X156252683Y-84623838D01*
X156036559Y-84762910D01*
X155891569Y-84975110D01*
X155867898Y-85092000D01*
X155427903Y-85092000D01*
X155117609Y-84963154D01*
X154763943Y-84962846D01*
X154437080Y-85097903D01*
X154186782Y-85347764D01*
X154051154Y-85674391D01*
X154050846Y-86028057D01*
X152668000Y-86028057D01*
X152668000Y-84016279D01*
X152859441Y-83893090D01*
X152905969Y-83824994D01*
X153048302Y-83967327D01*
X153281691Y-84064000D01*
X153622250Y-84064000D01*
X153781000Y-83905250D01*
X153781000Y-82931000D01*
X154035000Y-82931000D01*
X154035000Y-83905250D01*
X154193750Y-84064000D01*
X154534309Y-84064000D01*
X154767698Y-83967327D01*
X154946327Y-83788699D01*
X155043000Y-83555310D01*
X155043000Y-83089750D01*
X154884250Y-82931000D01*
X154035000Y-82931000D01*
X153781000Y-82931000D01*
X153761000Y-82931000D01*
X153761000Y-82677000D01*
X153781000Y-82677000D01*
X153781000Y-81702750D01*
X154035000Y-81702750D01*
X154035000Y-82677000D01*
X154884250Y-82677000D01*
X155043000Y-82518250D01*
X155043000Y-82052690D01*
X154946327Y-81819301D01*
X154767698Y-81640673D01*
X154534309Y-81544000D01*
X154193750Y-81544000D01*
X154035000Y-81702750D01*
X153781000Y-81702750D01*
X153622250Y-81544000D01*
X153281691Y-81544000D01*
X153048302Y-81640673D01*
X152907064Y-81781910D01*
X152872090Y-81727559D01*
X152668000Y-81588110D01*
X152668000Y-79444279D01*
X152859441Y-79321090D01*
X152905969Y-79252994D01*
X153048302Y-79395327D01*
X153281691Y-79492000D01*
X153622250Y-79492000D01*
X153781000Y-79333250D01*
X153781000Y-78359000D01*
X154035000Y-78359000D01*
X154035000Y-79333250D01*
X154193750Y-79492000D01*
X154534309Y-79492000D01*
X154767698Y-79395327D01*
X154946327Y-79216699D01*
X155043000Y-78983310D01*
X155043000Y-78517750D01*
X154884250Y-78359000D01*
X154035000Y-78359000D01*
X153781000Y-78359000D01*
X153761000Y-78359000D01*
X153761000Y-78105000D01*
X153781000Y-78105000D01*
X153781000Y-77130750D01*
X154035000Y-77130750D01*
X154035000Y-78105000D01*
X154884250Y-78105000D01*
X155043000Y-77946250D01*
X155043000Y-77480690D01*
X154946327Y-77247301D01*
X154767698Y-77068673D01*
X154534309Y-76972000D01*
X154193750Y-76972000D01*
X154035000Y-77130750D01*
X153781000Y-77130750D01*
X153666000Y-77015750D01*
X153666000Y-72001440D01*
X154906000Y-72001440D01*
X155141317Y-71957162D01*
X155357441Y-71818090D01*
X155502431Y-71605890D01*
X155553440Y-71354000D01*
X155553440Y-70389750D01*
X156371000Y-70389750D01*
X156371000Y-71480310D01*
X156467673Y-71713699D01*
X156646302Y-71892327D01*
X156879691Y-71989000D01*
X158720250Y-71989000D01*
X158879000Y-71830250D01*
X158879000Y-70231000D01*
X159133000Y-70231000D01*
X159133000Y-71830250D01*
X159291750Y-71989000D01*
X161132309Y-71989000D01*
X161365698Y-71892327D01*
X161544327Y-71713699D01*
X161641000Y-71480310D01*
X161641000Y-70389750D01*
X161482250Y-70231000D01*
X159133000Y-70231000D01*
X158879000Y-70231000D01*
X156529750Y-70231000D01*
X156371000Y-70389750D01*
X155553440Y-70389750D01*
X155553440Y-68854000D01*
X155529674Y-68727690D01*
X156371000Y-68727690D01*
X156371000Y-69818250D01*
X156529750Y-69977000D01*
X158879000Y-69977000D01*
X158879000Y-68377750D01*
X159133000Y-68377750D01*
X159133000Y-69977000D01*
X161482250Y-69977000D01*
X161641000Y-69818250D01*
X161641000Y-68727690D01*
X161544327Y-68494301D01*
X161365698Y-68315673D01*
X161132309Y-68219000D01*
X159291750Y-68219000D01*
X159133000Y-68377750D01*
X158879000Y-68377750D01*
X158720250Y-68219000D01*
X156879691Y-68219000D01*
X156646302Y-68315673D01*
X156467673Y-68494301D01*
X156371000Y-68727690D01*
X155529674Y-68727690D01*
X155509162Y-68618683D01*
X155370090Y-68402559D01*
X155157890Y-68257569D01*
X154906000Y-68206560D01*
X152083362Y-68206560D01*
X150620000Y-66743198D01*
X150620000Y-62372648D01*
X151130000Y-62474093D01*
X151698285Y-62361054D01*
X152180054Y-62039147D01*
X152400000Y-61709974D01*
X152619946Y-62039147D01*
X153101715Y-62361054D01*
X153670000Y-62474093D01*
X154238285Y-62361054D01*
X154720054Y-62039147D01*
X154940000Y-61709974D01*
X155159946Y-62039147D01*
X155641715Y-62361054D01*
X156210000Y-62474093D01*
X156778285Y-62361054D01*
X157260054Y-62039147D01*
X157480000Y-61709974D01*
X157699946Y-62039147D01*
X158181715Y-62361054D01*
X158750000Y-62474093D01*
X159318285Y-62361054D01*
X159800054Y-62039147D01*
X160020000Y-61709974D01*
X160239946Y-62039147D01*
X160721715Y-62361054D01*
X161290000Y-62474093D01*
X161858285Y-62361054D01*
X162340054Y-62039147D01*
X162560000Y-61709974D01*
X162779946Y-62039147D01*
X163261715Y-62361054D01*
X163830000Y-62474093D01*
X164398285Y-62361054D01*
X164880054Y-62039147D01*
X165100000Y-61709974D01*
X165319946Y-62039147D01*
X165801715Y-62361054D01*
X166370000Y-62474093D01*
X166938285Y-62361054D01*
X167420054Y-62039147D01*
X167640000Y-61709974D01*
X167859946Y-62039147D01*
X168341715Y-62361054D01*
X168910000Y-62474093D01*
X169478285Y-62361054D01*
X169960054Y-62039147D01*
X170180000Y-61709974D01*
X170399946Y-62039147D01*
X170881715Y-62361054D01*
X171450000Y-62474093D01*
X172018285Y-62361054D01*
X172500054Y-62039147D01*
X172720000Y-61709974D01*
X172939946Y-62039147D01*
X173421715Y-62361054D01*
X173990000Y-62474093D01*
X174558285Y-62361054D01*
X175040054Y-62039147D01*
X175260000Y-61709974D01*
X175479946Y-62039147D01*
X175961715Y-62361054D01*
X176530000Y-62474093D01*
X177098285Y-62361054D01*
X177580054Y-62039147D01*
X177800000Y-61709974D01*
X178019946Y-62039147D01*
X178501715Y-62361054D01*
X179070000Y-62474093D01*
X179638285Y-62361054D01*
X180120054Y-62039147D01*
X180340000Y-61709974D01*
X180559946Y-62039147D01*
X181041715Y-62361054D01*
X181610000Y-62474093D01*
X182178285Y-62361054D01*
X182660054Y-62039147D01*
X182981961Y-61557378D01*
X183095000Y-60989093D01*
X183095000Y-60930907D01*
X182981961Y-60362622D01*
X182660054Y-59880853D01*
X182374422Y-59690000D01*
X182660054Y-59499147D01*
X182981961Y-59017378D01*
X183095000Y-58449093D01*
X183095000Y-58390907D01*
X182981961Y-57822622D01*
X182660054Y-57340853D01*
X182374418Y-57149997D01*
X182660054Y-56959142D01*
X182981961Y-56477373D01*
X183095000Y-55909088D01*
X183095000Y-55850902D01*
X182981961Y-55282617D01*
X182660054Y-54800848D01*
X182374422Y-54609995D01*
X182660054Y-54419142D01*
X182981961Y-53937373D01*
X183095000Y-53369088D01*
X183095000Y-53310902D01*
X182981961Y-52742617D01*
X182660054Y-52260848D01*
X182178285Y-51938941D01*
X181610000Y-51825902D01*
X181041715Y-51938941D01*
X180559946Y-52260848D01*
X180340000Y-52590021D01*
X180120054Y-52260848D01*
X179638285Y-51938941D01*
X179070000Y-51825902D01*
X178501715Y-51938941D01*
X178019946Y-52260848D01*
X177792298Y-52601548D01*
X177725183Y-52458637D01*
X177296924Y-52068350D01*
X176886890Y-51898519D01*
X176657000Y-52019840D01*
X176657000Y-53212995D01*
X176677000Y-53212995D01*
X176677000Y-53466995D01*
X176657000Y-53466995D01*
X176657000Y-55752995D01*
X176677000Y-55752995D01*
X176677000Y-56006995D01*
X176657000Y-56006995D01*
X176657000Y-56026995D01*
X176403000Y-56026995D01*
X176403000Y-56006995D01*
X176383000Y-56006995D01*
X176383000Y-55752995D01*
X176403000Y-55752995D01*
X176403000Y-53466995D01*
X176383000Y-53466995D01*
X176383000Y-53212995D01*
X176403000Y-53212995D01*
X176403000Y-52019840D01*
X176173110Y-51898519D01*
X175763076Y-52068350D01*
X175334817Y-52458637D01*
X175267702Y-52601548D01*
X175040054Y-52260848D01*
X174558285Y-51938941D01*
X173990000Y-51825902D01*
X173421715Y-51938941D01*
X172939946Y-52260848D01*
X172720000Y-52590021D01*
X172500054Y-52260848D01*
X172018285Y-51938941D01*
X171450000Y-51825902D01*
X170881715Y-51938941D01*
X170399946Y-52260848D01*
X170180000Y-52590021D01*
X169960054Y-52260848D01*
X169478285Y-51938941D01*
X168910000Y-51825902D01*
X168341715Y-51938941D01*
X167859946Y-52260848D01*
X167640000Y-52590021D01*
X167420054Y-52260848D01*
X166938285Y-51938941D01*
X166370000Y-51825902D01*
X165801715Y-51938941D01*
X165319946Y-52260848D01*
X165100000Y-52590021D01*
X164880054Y-52260848D01*
X164398285Y-51938941D01*
X163830000Y-51825902D01*
X163261715Y-51938941D01*
X162779946Y-52260848D01*
X162560000Y-52590021D01*
X162340054Y-52260848D01*
X161858285Y-51938941D01*
X161640751Y-51895671D01*
X161662315Y-51862159D01*
X161671000Y-51816000D01*
X161671000Y-49403000D01*
X188338146Y-49403000D01*
X188285442Y-51774699D01*
X187957679Y-51446364D01*
X187136519Y-51105389D01*
X186247381Y-51104613D01*
X185425628Y-51444155D01*
X184796364Y-52072321D01*
X184455389Y-52893481D01*
X184454613Y-53782619D01*
X184794155Y-54604372D01*
X185422321Y-55233636D01*
X186243481Y-55574611D01*
X187132619Y-55575387D01*
X187954372Y-55235845D01*
X188214293Y-54976377D01*
X187833031Y-72133178D01*
X187841937Y-72182799D01*
X187869446Y-72225045D01*
X187911224Y-72253260D01*
X187960000Y-72263000D01*
X192913000Y-72263000D01*
X192913000Y-142621000D01*
X161671000Y-142621000D01*
X161671000Y-140208000D01*
X161660994Y-140158590D01*
X161632553Y-140116965D01*
X161590159Y-140089685D01*
X161544000Y-140081000D01*
X139192000Y-140081000D01*
X139142590Y-140091006D01*
X139100965Y-140119447D01*
X139073685Y-140161841D01*
X139065000Y-140208000D01*
X139065000Y-142621000D01*
X105283000Y-142621000D01*
X105283000Y-139512619D01*
X106984613Y-139512619D01*
X107324155Y-140334372D01*
X107952321Y-140963636D01*
X108773481Y-141304611D01*
X109662619Y-141305387D01*
X110484372Y-140965845D01*
X111113636Y-140337679D01*
X111454611Y-139516519D01*
X111454614Y-139512619D01*
X186994613Y-139512619D01*
X187334155Y-140334372D01*
X187962321Y-140963636D01*
X188783481Y-141304611D01*
X189672619Y-141305387D01*
X190494372Y-140965845D01*
X191123636Y-140337679D01*
X191464611Y-139516519D01*
X191465387Y-138627381D01*
X191125845Y-137805628D01*
X190497679Y-137176364D01*
X189676519Y-136835389D01*
X188787381Y-136834613D01*
X187965628Y-137174155D01*
X187336364Y-137802321D01*
X186995389Y-138623481D01*
X186994613Y-139512619D01*
X111454614Y-139512619D01*
X111455387Y-138627381D01*
X111115845Y-137805628D01*
X110487679Y-137176364D01*
X109666519Y-136835389D01*
X108777381Y-136834613D01*
X107955628Y-137174155D01*
X107326364Y-137802321D01*
X106985389Y-138623481D01*
X106984613Y-139512619D01*
X105283000Y-139512619D01*
X105283000Y-107823000D01*
X107188000Y-107823000D01*
X107237410Y-107812994D01*
X107279035Y-107784553D01*
X107306315Y-107742159D01*
X107315000Y-107696000D01*
X107315000Y-84836000D01*
X107304994Y-84786590D01*
X107276553Y-84744965D01*
X107234159Y-84717685D01*
X107188000Y-84709000D01*
X105283000Y-84709000D01*
X105283000Y-53782619D01*
X110794613Y-53782619D01*
X111134155Y-54604372D01*
X111762321Y-55233636D01*
X112583481Y-55574611D01*
X113472619Y-55575387D01*
X114294372Y-55235845D01*
X114923636Y-54607679D01*
X115264611Y-53786519D01*
X115265387Y-52897381D01*
X114925845Y-52075628D01*
X114297679Y-51446364D01*
X113476519Y-51105389D01*
X112587381Y-51104613D01*
X111765628Y-51444155D01*
X111136364Y-52072321D01*
X110795389Y-52893481D01*
X110794613Y-53782619D01*
X105283000Y-53782619D01*
X105283000Y-49403000D01*
X138557000Y-49403000D01*
X138557000Y-51816000D01*
G36*
X153797000Y-53212995D02*
X156083000Y-53212995D01*
X156083000Y-53192995D01*
X156337000Y-53192995D01*
X156337000Y-53212995D01*
X156357000Y-53212995D01*
X156357000Y-53466995D01*
X156337000Y-53466995D01*
X156337000Y-53486995D01*
X156083000Y-53486995D01*
X156083000Y-53466995D01*
X153797000Y-53466995D01*
X153797000Y-55752995D01*
X153817000Y-55752995D01*
X153817000Y-56006995D01*
X153797000Y-56006995D01*
X153797000Y-56026995D01*
X153543000Y-56026995D01*
X153543000Y-56006995D01*
X153523000Y-56006995D01*
X153523000Y-55752995D01*
X153543000Y-55752995D01*
X153543000Y-53466995D01*
X153523000Y-53466995D01*
X153523000Y-53212995D01*
X153543000Y-53212995D01*
X153543000Y-53192995D01*
X153797000Y-53192995D01*
X153797000Y-53212995D01*
X153797000Y-53212995D01*
G37*
X153797000Y-53212995D02*
X156083000Y-53212995D01*
X156083000Y-53192995D01*
X156337000Y-53192995D01*
X156337000Y-53212995D01*
X156357000Y-53212995D01*
X156357000Y-53466995D01*
X156337000Y-53466995D01*
X156337000Y-53486995D01*
X156083000Y-53486995D01*
X156083000Y-53466995D01*
X153797000Y-53466995D01*
X153797000Y-55752995D01*
X153817000Y-55752995D01*
X153817000Y-56006995D01*
X153797000Y-56006995D01*
X153797000Y-56026995D01*
X153543000Y-56026995D01*
X153543000Y-56006995D01*
X153523000Y-56006995D01*
X153523000Y-55752995D01*
X153543000Y-55752995D01*
X153543000Y-53466995D01*
X153523000Y-53466995D01*
X153523000Y-53212995D01*
X153543000Y-53212995D01*
X153543000Y-53192995D01*
X153797000Y-53192995D01*
X153797000Y-53212995D01*
G36*
X143637000Y-53212995D02*
X143657000Y-53212995D01*
X143657000Y-53466995D01*
X143637000Y-53466995D01*
X143637000Y-55752995D01*
X143657000Y-55752995D01*
X143657000Y-56006995D01*
X143637000Y-56006995D01*
X143637000Y-56026995D01*
X143383000Y-56026995D01*
X143383000Y-56006995D01*
X143363000Y-56006995D01*
X143363000Y-55752995D01*
X143383000Y-55752995D01*
X143383000Y-53466995D01*
X143363000Y-53466995D01*
X143363000Y-53212995D01*
X143383000Y-53212995D01*
X143383000Y-53192995D01*
X143637000Y-53192995D01*
X143637000Y-53212995D01*
X143637000Y-53212995D01*
G37*
X143637000Y-53212995D02*
X143657000Y-53212995D01*
X143657000Y-53466995D01*
X143637000Y-53466995D01*
X143637000Y-55752995D01*
X143657000Y-55752995D01*
X143657000Y-56006995D01*
X143637000Y-56006995D01*
X143637000Y-56026995D01*
X143383000Y-56026995D01*
X143383000Y-56006995D01*
X143363000Y-56006995D01*
X143363000Y-55752995D01*
X143383000Y-55752995D01*
X143383000Y-53466995D01*
X143363000Y-53466995D01*
X143363000Y-53212995D01*
X143383000Y-53212995D01*
X143383000Y-53192995D01*
X143637000Y-53192995D01*
X143637000Y-53212995D01*
G36*
X138557000Y-55752995D02*
X138577000Y-55752995D01*
X138577000Y-56006995D01*
X138557000Y-56006995D01*
X138557000Y-56026995D01*
X138303000Y-56026995D01*
X138303000Y-56006995D01*
X138283000Y-56006995D01*
X138283000Y-55752995D01*
X138303000Y-55752995D01*
X138303000Y-55732995D01*
X138557000Y-55732995D01*
X138557000Y-55752995D01*
X138557000Y-55752995D01*
G37*
X138557000Y-55752995D02*
X138577000Y-55752995D01*
X138577000Y-56006995D01*
X138557000Y-56006995D01*
X138557000Y-56026995D01*
X138303000Y-56026995D01*
X138303000Y-56006995D01*
X138283000Y-56006995D01*
X138283000Y-55752995D01*
X138303000Y-55752995D01*
X138303000Y-55732995D01*
X138557000Y-55732995D01*
X138557000Y-55752995D01*
G36*
X128397000Y-55752995D02*
X128417000Y-55752995D01*
X128417000Y-56006995D01*
X128397000Y-56006995D01*
X128397000Y-56026995D01*
X128143000Y-56026995D01*
X128143000Y-56006995D01*
X128123000Y-56006995D01*
X128123000Y-55752995D01*
X128143000Y-55752995D01*
X128143000Y-55732995D01*
X128397000Y-55732995D01*
X128397000Y-55752995D01*
X128397000Y-55752995D01*
G37*
X128397000Y-55752995D02*
X128417000Y-55752995D01*
X128417000Y-56006995D01*
X128397000Y-56006995D01*
X128397000Y-56026995D01*
X128143000Y-56026995D01*
X128143000Y-56006995D01*
X128123000Y-56006995D01*
X128123000Y-55752995D01*
X128143000Y-55752995D01*
X128143000Y-55732995D01*
X128397000Y-55732995D01*
X128397000Y-55752995D01*
G36*
X129759946Y-54419142D02*
X130045578Y-54609995D01*
X129759946Y-54800848D01*
X129532298Y-55141548D01*
X129465183Y-54998637D01*
X129036924Y-54608350D01*
X129036899Y-54608340D01*
X129320054Y-54419142D01*
X129540000Y-54089969D01*
X129759946Y-54419142D01*
X129759946Y-54419142D01*
G37*
X129759946Y-54419142D02*
X130045578Y-54609995D01*
X129759946Y-54800848D01*
X129532298Y-55141548D01*
X129465183Y-54998637D01*
X129036924Y-54608350D01*
X129036899Y-54608340D01*
X129320054Y-54419142D01*
X129540000Y-54089969D01*
X129759946Y-54419142D01*
G36*
X157699946Y-52260848D02*
X157472298Y-52601548D01*
X157405183Y-52458637D01*
X156976924Y-52068350D01*
X156674284Y-51943000D01*
X158175640Y-51943000D01*
X157699946Y-52260848D01*
X157699946Y-52260848D01*
G37*
X157699946Y-52260848D02*
X157472298Y-52601548D01*
X157405183Y-52458637D01*
X156976924Y-52068350D01*
X156674284Y-51943000D01*
X158175640Y-51943000D01*
X157699946Y-52260848D01*
M02*
