M48
INCH,TZ
T1C0.017
T2C0.039
%
G90
G05
T1
X54000Y-20000
X58620Y-25080
X59400Y-33600
X59640Y-34780
X61000Y-33800
T2
X44200Y-43600
X44200Y-44600
X44200Y-48600
X44200Y-49600
X46500Y-21000
X46500Y-22000
X46500Y-23000
X46500Y-24000
X47500Y-21000
X47500Y-22000
X47500Y-23000
X47500Y-24000
X48500Y-21000
X48500Y-22000
X48500Y-23000
X48500Y-24000
X49500Y-21000
X49500Y-22000
X49500Y-23000
X49500Y-24000
X50500Y-21000
X50500Y-22000
X50500Y-23000
X50500Y-24000
X51500Y-21000
X51500Y-22000
X51500Y-23000
X51500Y-24000
X52500Y-21000
X52500Y-22000
X52500Y-23000
X52500Y-24000
X53500Y-21000
X53500Y-22000
X53500Y-23000
X53500Y-24000
X54500Y-21000
X54500Y-22000
X54500Y-23000
X54500Y-24000
X55500Y-21000
X55500Y-22000
X55500Y-23000
X55500Y-24000
X56500Y-21000
X56500Y-22000
X56500Y-23000
X56500Y-24000
X57500Y-21000
X57500Y-22000
X57500Y-23000
X57500Y-24000
X58500Y-21000
X58500Y-22000
X58500Y-23000
X58500Y-24000
X59500Y-21000
X59500Y-22000
X59500Y-23000
X59500Y-24000
X60500Y-21000
X60500Y-22000
X60500Y-23000
X60500Y-24000
X61500Y-21000
X61500Y-22000
X61500Y-23000
X61500Y-24000
X62500Y-21000
X62500Y-22000
X62500Y-23000
X62500Y-24000
X63500Y-21000
X63500Y-22000
X63500Y-23000
X63500Y-24000
X64500Y-21000
X64500Y-22000
X64500Y-23000
X64500Y-24000
X65500Y-21000
X65500Y-22000
X65500Y-23000
X65500Y-24000
X66500Y-21000
X66500Y-22000
X66500Y-23000
X66500Y-24000
X67500Y-21000
X67500Y-22000
X67500Y-23000
X67500Y-24000
X68500Y-21000
X68500Y-22000
X68500Y-23000
X68500Y-24000
X69500Y-21000
X69500Y-22000
X69500Y-23000
X69500Y-24000
X70500Y-21000
X70500Y-22000
X70500Y-23000
X70500Y-24000
X71500Y-21000
X71500Y-22000
X71500Y-23000
X71500Y-24000
T0
M30
