G04 #@! TF.FileFunction,Copper,L2,Bot,Signal*
%FSLAX46Y46*%
G04 Gerber Fmt 4.6, Leading zero omitted, Abs format (unit mm)*
G04 Created by KiCad (PCBNEW 4.0.7) date Sun Jul  1 21:42:18 2018*
%MOMM*%
%LPD*%
G01*
G04 APERTURE LIST*
%ADD10C,0.100000*%
%ADD11R,1.700000X1.700000*%
%ADD12O,1.700000X1.700000*%
%ADD13C,0.600000*%
%ADD14C,0.250000*%
%ADD15C,0.254000*%
G04 APERTURE END LIST*
D10*
D11*
X118110000Y-60960000D03*
D12*
X118110000Y-58420000D03*
X120650000Y-60960000D03*
X120650000Y-58420000D03*
X123190000Y-60960000D03*
X123190000Y-58420000D03*
X125730000Y-60960000D03*
X125730000Y-58420000D03*
X128270000Y-60960000D03*
X128270000Y-58420000D03*
X130810000Y-60960000D03*
X130810000Y-58420000D03*
X133350000Y-60960000D03*
X133350000Y-58420000D03*
X135890000Y-60960000D03*
X135890000Y-58420000D03*
X138430000Y-60960000D03*
X138430000Y-58420000D03*
X140970000Y-60960000D03*
X140970000Y-58420000D03*
X143510000Y-60960000D03*
X143510000Y-58420000D03*
X146050000Y-60960000D03*
X146050000Y-58420000D03*
X148590000Y-60960000D03*
X148590000Y-58420000D03*
X151130000Y-60960000D03*
X151130000Y-58420000D03*
X153670000Y-60960000D03*
X153670000Y-58420000D03*
X156210000Y-60960000D03*
X156210000Y-58420000D03*
X158750000Y-60960000D03*
X158750000Y-58420000D03*
X161290000Y-60960000D03*
X161290000Y-58420000D03*
X163830000Y-60960000D03*
X163830000Y-58420000D03*
X166370000Y-60960000D03*
X166370000Y-58420000D03*
X168910000Y-60960000D03*
X168910000Y-58420000D03*
X171450000Y-60960000D03*
X171450000Y-58420000D03*
X173990000Y-60960000D03*
X173990000Y-58420000D03*
X176530000Y-60960000D03*
X176530000Y-58420000D03*
X179070000Y-60960000D03*
X179070000Y-58420000D03*
X181610000Y-60960000D03*
X181610000Y-58420000D03*
D11*
X118110000Y-55879995D03*
D12*
X118110000Y-53339995D03*
X120650000Y-55879995D03*
X120650000Y-53339995D03*
X123190000Y-55879995D03*
X123190000Y-53339995D03*
X125730000Y-55879995D03*
X125730000Y-53339995D03*
X128270000Y-55879995D03*
X128270000Y-53339995D03*
X130810000Y-55879995D03*
X130810000Y-53339995D03*
X133350000Y-55879995D03*
X133350000Y-53339995D03*
X135890000Y-55879995D03*
X135890000Y-53339995D03*
X138430000Y-55879995D03*
X138430000Y-53339995D03*
X140970000Y-55879995D03*
X140970000Y-53339995D03*
X143510000Y-55879995D03*
X143510000Y-53339995D03*
X146050000Y-55879995D03*
X146050000Y-53339995D03*
X148590000Y-55879995D03*
X148590000Y-53339995D03*
X151130000Y-55879995D03*
X151130000Y-53339995D03*
X153670000Y-55879995D03*
X153670000Y-53339995D03*
X156210000Y-55879995D03*
X156210000Y-53339995D03*
X158750000Y-55879995D03*
X158750000Y-53339995D03*
X161290000Y-55879995D03*
X161290000Y-53339995D03*
X163830000Y-55879995D03*
X163830000Y-53339995D03*
X166370000Y-55879995D03*
X166370000Y-53339995D03*
X168910000Y-55879995D03*
X168910000Y-53339995D03*
X171450000Y-55879995D03*
X171450000Y-53339995D03*
X173990000Y-55879995D03*
X173990000Y-53339995D03*
X176530000Y-55879995D03*
X176530000Y-53339995D03*
X179070000Y-55879995D03*
X179070000Y-53339995D03*
X181610000Y-55879995D03*
X181610000Y-53339995D03*
D11*
X112268000Y-113284000D03*
D12*
X112268000Y-110744000D03*
D13*
X148894800Y-63703200D03*
X151485600Y-88341200D03*
X123342400Y-117602000D03*
X129540000Y-50800000D03*
X137160000Y-50800000D03*
X162560000Y-51308000D03*
X154940000Y-85852000D03*
X150876000Y-85344000D03*
D14*
X143510000Y-53339995D02*
X141986005Y-51816000D01*
X138176000Y-51816000D02*
X137160000Y-50800000D01*
X141986005Y-51816000D02*
X138176000Y-51816000D01*
X151384000Y-85852000D02*
X154940000Y-85852000D01*
X150876000Y-85344000D02*
X151384000Y-85852000D01*
D15*
G36*
X138557000Y-51056000D02*
X138490802Y-51056000D01*
X138095122Y-50660320D01*
X138095162Y-50614833D01*
X137953117Y-50271057D01*
X137690327Y-50007808D01*
X137346799Y-49865162D01*
X136974833Y-49864838D01*
X136631057Y-50006883D01*
X136367808Y-50269673D01*
X136225162Y-50613201D01*
X136224838Y-50985167D01*
X136366883Y-51328943D01*
X136629673Y-51592192D01*
X136973201Y-51734838D01*
X137020077Y-51734879D01*
X137479516Y-52194318D01*
X137379946Y-52260848D01*
X137160000Y-52590021D01*
X136940054Y-52260848D01*
X136458285Y-51938941D01*
X135890000Y-51825902D01*
X135321715Y-51938941D01*
X134839946Y-52260848D01*
X134620000Y-52590021D01*
X134400054Y-52260848D01*
X133918285Y-51938941D01*
X133350000Y-51825902D01*
X132781715Y-51938941D01*
X132299946Y-52260848D01*
X132080000Y-52590021D01*
X131860054Y-52260848D01*
X131378285Y-51938941D01*
X130810000Y-51825902D01*
X130241715Y-51938941D01*
X129759946Y-52260848D01*
X129540000Y-52590021D01*
X129320054Y-52260848D01*
X128838285Y-51938941D01*
X128270000Y-51825902D01*
X127701715Y-51938941D01*
X127219946Y-52260848D01*
X127000000Y-52590021D01*
X126780054Y-52260848D01*
X126298285Y-51938941D01*
X125730000Y-51825902D01*
X125161715Y-51938941D01*
X124679946Y-52260848D01*
X124460000Y-52590021D01*
X124240054Y-52260848D01*
X123758285Y-51938941D01*
X123190000Y-51825902D01*
X122621715Y-51938941D01*
X122139946Y-52260848D01*
X121920000Y-52590021D01*
X121700054Y-52260848D01*
X121218285Y-51938941D01*
X120650000Y-51825902D01*
X120081715Y-51938941D01*
X119599946Y-52260848D01*
X119380000Y-52590021D01*
X119160054Y-52260848D01*
X118678285Y-51938941D01*
X118110000Y-51825902D01*
X117541715Y-51938941D01*
X117059946Y-52260848D01*
X116738039Y-52742617D01*
X116625000Y-53310902D01*
X116625000Y-53369088D01*
X116738039Y-53937373D01*
X117059946Y-54419142D01*
X117061179Y-54419966D01*
X117024683Y-54426833D01*
X116808559Y-54565905D01*
X116663569Y-54778105D01*
X116612560Y-55029995D01*
X116612560Y-56729995D01*
X116656838Y-56965312D01*
X116795910Y-57181436D01*
X117008110Y-57326426D01*
X117064460Y-57337837D01*
X117059946Y-57340853D01*
X116738039Y-57822622D01*
X116625000Y-58390907D01*
X116625000Y-58449093D01*
X116738039Y-59017378D01*
X117059946Y-59499147D01*
X117061179Y-59499971D01*
X117024683Y-59506838D01*
X116808559Y-59645910D01*
X116663569Y-59858110D01*
X116612560Y-60110000D01*
X116612560Y-61810000D01*
X116656838Y-62045317D01*
X116795910Y-62261441D01*
X117008110Y-62406431D01*
X117260000Y-62457440D01*
X118960000Y-62457440D01*
X119195317Y-62413162D01*
X119411441Y-62274090D01*
X119556431Y-62061890D01*
X119570086Y-61994459D01*
X119599946Y-62039147D01*
X120081715Y-62361054D01*
X120650000Y-62474093D01*
X121218285Y-62361054D01*
X121700054Y-62039147D01*
X121920000Y-61709974D01*
X122139946Y-62039147D01*
X122621715Y-62361054D01*
X123190000Y-62474093D01*
X123758285Y-62361054D01*
X124240054Y-62039147D01*
X124460000Y-61709974D01*
X124679946Y-62039147D01*
X125161715Y-62361054D01*
X125730000Y-62474093D01*
X126298285Y-62361054D01*
X126780054Y-62039147D01*
X127000000Y-61709974D01*
X127219946Y-62039147D01*
X127701715Y-62361054D01*
X128270000Y-62474093D01*
X128838285Y-62361054D01*
X129320054Y-62039147D01*
X129540000Y-61709974D01*
X129759946Y-62039147D01*
X130241715Y-62361054D01*
X130810000Y-62474093D01*
X131378285Y-62361054D01*
X131860054Y-62039147D01*
X132080000Y-61709974D01*
X132299946Y-62039147D01*
X132781715Y-62361054D01*
X133350000Y-62474093D01*
X133918285Y-62361054D01*
X134400054Y-62039147D01*
X134620000Y-61709974D01*
X134839946Y-62039147D01*
X135321715Y-62361054D01*
X135890000Y-62474093D01*
X136458285Y-62361054D01*
X136940054Y-62039147D01*
X137160000Y-61709974D01*
X137379946Y-62039147D01*
X137861715Y-62361054D01*
X138430000Y-62474093D01*
X138998285Y-62361054D01*
X139480054Y-62039147D01*
X139700000Y-61709974D01*
X139919946Y-62039147D01*
X140401715Y-62361054D01*
X140970000Y-62474093D01*
X141538285Y-62361054D01*
X142020054Y-62039147D01*
X142240000Y-61709974D01*
X142459946Y-62039147D01*
X142941715Y-62361054D01*
X143510000Y-62474093D01*
X144078285Y-62361054D01*
X144560054Y-62039147D01*
X144780000Y-61709974D01*
X144999946Y-62039147D01*
X145481715Y-62361054D01*
X146050000Y-62474093D01*
X146618285Y-62361054D01*
X147100054Y-62039147D01*
X147320000Y-61709974D01*
X147539946Y-62039147D01*
X148021715Y-62361054D01*
X148590000Y-62474093D01*
X149158285Y-62361054D01*
X149640054Y-62039147D01*
X149860000Y-61709974D01*
X150079946Y-62039147D01*
X150561715Y-62361054D01*
X151130000Y-62474093D01*
X151698285Y-62361054D01*
X152180054Y-62039147D01*
X152400000Y-61709974D01*
X152619946Y-62039147D01*
X153101715Y-62361054D01*
X153670000Y-62474093D01*
X154238285Y-62361054D01*
X154720054Y-62039147D01*
X154940000Y-61709974D01*
X155159946Y-62039147D01*
X155641715Y-62361054D01*
X156210000Y-62474093D01*
X156778285Y-62361054D01*
X157260054Y-62039147D01*
X157480000Y-61709974D01*
X157699946Y-62039147D01*
X158181715Y-62361054D01*
X158750000Y-62474093D01*
X159318285Y-62361054D01*
X159800054Y-62039147D01*
X160020000Y-61709974D01*
X160239946Y-62039147D01*
X160721715Y-62361054D01*
X161290000Y-62474093D01*
X161858285Y-62361054D01*
X162340054Y-62039147D01*
X162560000Y-61709974D01*
X162779946Y-62039147D01*
X163261715Y-62361054D01*
X163830000Y-62474093D01*
X164398285Y-62361054D01*
X164880054Y-62039147D01*
X165100000Y-61709974D01*
X165319946Y-62039147D01*
X165801715Y-62361054D01*
X166370000Y-62474093D01*
X166938285Y-62361054D01*
X167420054Y-62039147D01*
X167640000Y-61709974D01*
X167859946Y-62039147D01*
X168341715Y-62361054D01*
X168910000Y-62474093D01*
X169478285Y-62361054D01*
X169960054Y-62039147D01*
X170180000Y-61709974D01*
X170399946Y-62039147D01*
X170881715Y-62361054D01*
X171450000Y-62474093D01*
X172018285Y-62361054D01*
X172500054Y-62039147D01*
X172720000Y-61709974D01*
X172939946Y-62039147D01*
X173421715Y-62361054D01*
X173990000Y-62474093D01*
X174558285Y-62361054D01*
X175040054Y-62039147D01*
X175260000Y-61709974D01*
X175479946Y-62039147D01*
X175961715Y-62361054D01*
X176530000Y-62474093D01*
X177098285Y-62361054D01*
X177580054Y-62039147D01*
X177800000Y-61709974D01*
X178019946Y-62039147D01*
X178501715Y-62361054D01*
X179070000Y-62474093D01*
X179638285Y-62361054D01*
X180120054Y-62039147D01*
X180340000Y-61709974D01*
X180559946Y-62039147D01*
X181041715Y-62361054D01*
X181610000Y-62474093D01*
X182178285Y-62361054D01*
X182660054Y-62039147D01*
X182981961Y-61557378D01*
X183095000Y-60989093D01*
X183095000Y-60930907D01*
X182981961Y-60362622D01*
X182660054Y-59880853D01*
X182374422Y-59690000D01*
X182660054Y-59499147D01*
X182981961Y-59017378D01*
X183095000Y-58449093D01*
X183095000Y-58390907D01*
X182981961Y-57822622D01*
X182660054Y-57340853D01*
X182374418Y-57149997D01*
X182660054Y-56959142D01*
X182981961Y-56477373D01*
X183095000Y-55909088D01*
X183095000Y-55850902D01*
X182981961Y-55282617D01*
X182660054Y-54800848D01*
X182374422Y-54609995D01*
X182660054Y-54419142D01*
X182981961Y-53937373D01*
X183095000Y-53369088D01*
X183095000Y-53310902D01*
X182981961Y-52742617D01*
X182660054Y-52260848D01*
X182178285Y-51938941D01*
X181610000Y-51825902D01*
X181041715Y-51938941D01*
X180559946Y-52260848D01*
X180340000Y-52590021D01*
X180120054Y-52260848D01*
X179638285Y-51938941D01*
X179070000Y-51825902D01*
X178501715Y-51938941D01*
X178019946Y-52260848D01*
X177800000Y-52590021D01*
X177580054Y-52260848D01*
X177098285Y-51938941D01*
X176530000Y-51825902D01*
X175961715Y-51938941D01*
X175479946Y-52260848D01*
X175260000Y-52590021D01*
X175040054Y-52260848D01*
X174558285Y-51938941D01*
X173990000Y-51825902D01*
X173421715Y-51938941D01*
X172939946Y-52260848D01*
X172720000Y-52590021D01*
X172500054Y-52260848D01*
X172018285Y-51938941D01*
X171450000Y-51825902D01*
X170881715Y-51938941D01*
X170399946Y-52260848D01*
X170180000Y-52590021D01*
X169960054Y-52260848D01*
X169478285Y-51938941D01*
X168910000Y-51825902D01*
X168341715Y-51938941D01*
X167859946Y-52260848D01*
X167640000Y-52590021D01*
X167420054Y-52260848D01*
X166938285Y-51938941D01*
X166370000Y-51825902D01*
X165801715Y-51938941D01*
X165319946Y-52260848D01*
X165100000Y-52590021D01*
X164880054Y-52260848D01*
X164398285Y-51938941D01*
X163830000Y-51825902D01*
X163261715Y-51938941D01*
X163230526Y-51959781D01*
X163352192Y-51838327D01*
X163494838Y-51494799D01*
X163495162Y-51122833D01*
X163353117Y-50779057D01*
X163090327Y-50515808D01*
X162746799Y-50373162D01*
X162374833Y-50372838D01*
X162031057Y-50514883D01*
X161767808Y-50777673D01*
X161671000Y-51010811D01*
X161671000Y-49403000D01*
X188338146Y-49403000D01*
X188285442Y-51774699D01*
X187957679Y-51446364D01*
X187136519Y-51105389D01*
X186247381Y-51104613D01*
X185425628Y-51444155D01*
X184796364Y-52072321D01*
X184455389Y-52893481D01*
X184454613Y-53782619D01*
X184794155Y-54604372D01*
X185422321Y-55233636D01*
X186243481Y-55574611D01*
X187132619Y-55575387D01*
X187954372Y-55235845D01*
X188214293Y-54976377D01*
X187833031Y-72133178D01*
X187841937Y-72182799D01*
X187869446Y-72225045D01*
X187911224Y-72253260D01*
X187960000Y-72263000D01*
X192913000Y-72263000D01*
X192913000Y-142621000D01*
X161671000Y-142621000D01*
X161671000Y-140208000D01*
X161660994Y-140158590D01*
X161632553Y-140116965D01*
X161590159Y-140089685D01*
X161544000Y-140081000D01*
X139192000Y-140081000D01*
X139142590Y-140091006D01*
X139100965Y-140119447D01*
X139073685Y-140161841D01*
X139065000Y-140208000D01*
X139065000Y-142621000D01*
X105283000Y-142621000D01*
X105283000Y-139512619D01*
X106984613Y-139512619D01*
X107324155Y-140334372D01*
X107952321Y-140963636D01*
X108773481Y-141304611D01*
X109662619Y-141305387D01*
X110484372Y-140965845D01*
X111113636Y-140337679D01*
X111454611Y-139516519D01*
X111454614Y-139512619D01*
X186994613Y-139512619D01*
X187334155Y-140334372D01*
X187962321Y-140963636D01*
X188783481Y-141304611D01*
X189672619Y-141305387D01*
X190494372Y-140965845D01*
X191123636Y-140337679D01*
X191464611Y-139516519D01*
X191465387Y-138627381D01*
X191125845Y-137805628D01*
X190497679Y-137176364D01*
X189676519Y-136835389D01*
X188787381Y-136834613D01*
X187965628Y-137174155D01*
X187336364Y-137802321D01*
X186995389Y-138623481D01*
X186994613Y-139512619D01*
X111454614Y-139512619D01*
X111455387Y-138627381D01*
X111115845Y-137805628D01*
X110487679Y-137176364D01*
X109666519Y-136835389D01*
X108777381Y-136834613D01*
X107955628Y-137174155D01*
X107326364Y-137802321D01*
X106985389Y-138623481D01*
X106984613Y-139512619D01*
X105283000Y-139512619D01*
X105283000Y-117787167D01*
X122407238Y-117787167D01*
X122549283Y-118130943D01*
X122812073Y-118394192D01*
X123155601Y-118536838D01*
X123527567Y-118537162D01*
X123871343Y-118395117D01*
X124134592Y-118132327D01*
X124277238Y-117788799D01*
X124277562Y-117416833D01*
X124135517Y-117073057D01*
X123872727Y-116809808D01*
X123529199Y-116667162D01*
X123157233Y-116666838D01*
X122813457Y-116808883D01*
X122550208Y-117071673D01*
X122407562Y-117415201D01*
X122407238Y-117787167D01*
X105283000Y-117787167D01*
X105283000Y-112434000D01*
X110770560Y-112434000D01*
X110770560Y-114134000D01*
X110814838Y-114369317D01*
X110953910Y-114585441D01*
X111166110Y-114730431D01*
X111418000Y-114781440D01*
X113118000Y-114781440D01*
X113353317Y-114737162D01*
X113569441Y-114598090D01*
X113714431Y-114385890D01*
X113765440Y-114134000D01*
X113765440Y-112434000D01*
X113721162Y-112198683D01*
X113582090Y-111982559D01*
X113369890Y-111837569D01*
X113261893Y-111815699D01*
X113539645Y-111510924D01*
X113709476Y-111100890D01*
X113588155Y-110871000D01*
X112395000Y-110871000D01*
X112395000Y-110891000D01*
X112141000Y-110891000D01*
X112141000Y-110871000D01*
X110947845Y-110871000D01*
X110826524Y-111100890D01*
X110996355Y-111510924D01*
X111272501Y-111813937D01*
X111182683Y-111830838D01*
X110966559Y-111969910D01*
X110821569Y-112182110D01*
X110770560Y-112434000D01*
X105283000Y-112434000D01*
X105283000Y-110387110D01*
X110826524Y-110387110D01*
X110947845Y-110617000D01*
X112141000Y-110617000D01*
X112141000Y-109423181D01*
X112395000Y-109423181D01*
X112395000Y-110617000D01*
X113588155Y-110617000D01*
X113709476Y-110387110D01*
X113539645Y-109977076D01*
X113149358Y-109548817D01*
X112624892Y-109302514D01*
X112395000Y-109423181D01*
X112141000Y-109423181D01*
X111911108Y-109302514D01*
X111386642Y-109548817D01*
X110996355Y-109977076D01*
X110826524Y-110387110D01*
X105283000Y-110387110D01*
X105283000Y-107823000D01*
X107188000Y-107823000D01*
X107237410Y-107812994D01*
X107279035Y-107784553D01*
X107306315Y-107742159D01*
X107315000Y-107696000D01*
X107315000Y-85529167D01*
X149940838Y-85529167D01*
X150082883Y-85872943D01*
X150345673Y-86136192D01*
X150689201Y-86278838D01*
X150736077Y-86278879D01*
X150846599Y-86389401D01*
X151093161Y-86554148D01*
X151384000Y-86612000D01*
X154377537Y-86612000D01*
X154409673Y-86644192D01*
X154753201Y-86786838D01*
X155125167Y-86787162D01*
X155468943Y-86645117D01*
X155732192Y-86382327D01*
X155874838Y-86038799D01*
X155875162Y-85666833D01*
X155733117Y-85323057D01*
X155470327Y-85059808D01*
X155126799Y-84917162D01*
X154754833Y-84916838D01*
X154411057Y-85058883D01*
X154377882Y-85092000D01*
X151783547Y-85092000D01*
X151669117Y-84815057D01*
X151406327Y-84551808D01*
X151062799Y-84409162D01*
X150690833Y-84408838D01*
X150347057Y-84550883D01*
X150083808Y-84813673D01*
X149941162Y-85157201D01*
X149940838Y-85529167D01*
X107315000Y-85529167D01*
X107315000Y-84836000D01*
X107304994Y-84786590D01*
X107276553Y-84744965D01*
X107234159Y-84717685D01*
X107188000Y-84709000D01*
X105283000Y-84709000D01*
X105283000Y-53782619D01*
X110794613Y-53782619D01*
X111134155Y-54604372D01*
X111762321Y-55233636D01*
X112583481Y-55574611D01*
X113472619Y-55575387D01*
X114294372Y-55235845D01*
X114923636Y-54607679D01*
X115264611Y-53786519D01*
X115265387Y-52897381D01*
X114925845Y-52075628D01*
X114297679Y-51446364D01*
X113476519Y-51105389D01*
X112587381Y-51104613D01*
X111765628Y-51444155D01*
X111136364Y-52072321D01*
X110795389Y-52893481D01*
X110794613Y-53782619D01*
X105283000Y-53782619D01*
X105283000Y-50985167D01*
X128604838Y-50985167D01*
X128746883Y-51328943D01*
X129009673Y-51592192D01*
X129353201Y-51734838D01*
X129725167Y-51735162D01*
X130068943Y-51593117D01*
X130332192Y-51330327D01*
X130474838Y-50986799D01*
X130475162Y-50614833D01*
X130333117Y-50271057D01*
X130070327Y-50007808D01*
X129726799Y-49865162D01*
X129354833Y-49864838D01*
X129011057Y-50006883D01*
X128747808Y-50269673D01*
X128605162Y-50613201D01*
X128604838Y-50985167D01*
X105283000Y-50985167D01*
X105283000Y-49403000D01*
X138557000Y-49403000D01*
X138557000Y-51056000D01*
X138557000Y-51056000D01*
G37*
X138557000Y-51056000D02*
X138490802Y-51056000D01*
X138095122Y-50660320D01*
X138095162Y-50614833D01*
X137953117Y-50271057D01*
X137690327Y-50007808D01*
X137346799Y-49865162D01*
X136974833Y-49864838D01*
X136631057Y-50006883D01*
X136367808Y-50269673D01*
X136225162Y-50613201D01*
X136224838Y-50985167D01*
X136366883Y-51328943D01*
X136629673Y-51592192D01*
X136973201Y-51734838D01*
X137020077Y-51734879D01*
X137479516Y-52194318D01*
X137379946Y-52260848D01*
X137160000Y-52590021D01*
X136940054Y-52260848D01*
X136458285Y-51938941D01*
X135890000Y-51825902D01*
X135321715Y-51938941D01*
X134839946Y-52260848D01*
X134620000Y-52590021D01*
X134400054Y-52260848D01*
X133918285Y-51938941D01*
X133350000Y-51825902D01*
X132781715Y-51938941D01*
X132299946Y-52260848D01*
X132080000Y-52590021D01*
X131860054Y-52260848D01*
X131378285Y-51938941D01*
X130810000Y-51825902D01*
X130241715Y-51938941D01*
X129759946Y-52260848D01*
X129540000Y-52590021D01*
X129320054Y-52260848D01*
X128838285Y-51938941D01*
X128270000Y-51825902D01*
X127701715Y-51938941D01*
X127219946Y-52260848D01*
X127000000Y-52590021D01*
X126780054Y-52260848D01*
X126298285Y-51938941D01*
X125730000Y-51825902D01*
X125161715Y-51938941D01*
X124679946Y-52260848D01*
X124460000Y-52590021D01*
X124240054Y-52260848D01*
X123758285Y-51938941D01*
X123190000Y-51825902D01*
X122621715Y-51938941D01*
X122139946Y-52260848D01*
X121920000Y-52590021D01*
X121700054Y-52260848D01*
X121218285Y-51938941D01*
X120650000Y-51825902D01*
X120081715Y-51938941D01*
X119599946Y-52260848D01*
X119380000Y-52590021D01*
X119160054Y-52260848D01*
X118678285Y-51938941D01*
X118110000Y-51825902D01*
X117541715Y-51938941D01*
X117059946Y-52260848D01*
X116738039Y-52742617D01*
X116625000Y-53310902D01*
X116625000Y-53369088D01*
X116738039Y-53937373D01*
X117059946Y-54419142D01*
X117061179Y-54419966D01*
X117024683Y-54426833D01*
X116808559Y-54565905D01*
X116663569Y-54778105D01*
X116612560Y-55029995D01*
X116612560Y-56729995D01*
X116656838Y-56965312D01*
X116795910Y-57181436D01*
X117008110Y-57326426D01*
X117064460Y-57337837D01*
X117059946Y-57340853D01*
X116738039Y-57822622D01*
X116625000Y-58390907D01*
X116625000Y-58449093D01*
X116738039Y-59017378D01*
X117059946Y-59499147D01*
X117061179Y-59499971D01*
X117024683Y-59506838D01*
X116808559Y-59645910D01*
X116663569Y-59858110D01*
X116612560Y-60110000D01*
X116612560Y-61810000D01*
X116656838Y-62045317D01*
X116795910Y-62261441D01*
X117008110Y-62406431D01*
X117260000Y-62457440D01*
X118960000Y-62457440D01*
X119195317Y-62413162D01*
X119411441Y-62274090D01*
X119556431Y-62061890D01*
X119570086Y-61994459D01*
X119599946Y-62039147D01*
X120081715Y-62361054D01*
X120650000Y-62474093D01*
X121218285Y-62361054D01*
X121700054Y-62039147D01*
X121920000Y-61709974D01*
X122139946Y-62039147D01*
X122621715Y-62361054D01*
X123190000Y-62474093D01*
X123758285Y-62361054D01*
X124240054Y-62039147D01*
X124460000Y-61709974D01*
X124679946Y-62039147D01*
X125161715Y-62361054D01*
X125730000Y-62474093D01*
X126298285Y-62361054D01*
X126780054Y-62039147D01*
X127000000Y-61709974D01*
X127219946Y-62039147D01*
X127701715Y-62361054D01*
X128270000Y-62474093D01*
X128838285Y-62361054D01*
X129320054Y-62039147D01*
X129540000Y-61709974D01*
X129759946Y-62039147D01*
X130241715Y-62361054D01*
X130810000Y-62474093D01*
X131378285Y-62361054D01*
X131860054Y-62039147D01*
X132080000Y-61709974D01*
X132299946Y-62039147D01*
X132781715Y-62361054D01*
X133350000Y-62474093D01*
X133918285Y-62361054D01*
X134400054Y-62039147D01*
X134620000Y-61709974D01*
X134839946Y-62039147D01*
X135321715Y-62361054D01*
X135890000Y-62474093D01*
X136458285Y-62361054D01*
X136940054Y-62039147D01*
X137160000Y-61709974D01*
X137379946Y-62039147D01*
X137861715Y-62361054D01*
X138430000Y-62474093D01*
X138998285Y-62361054D01*
X139480054Y-62039147D01*
X139700000Y-61709974D01*
X139919946Y-62039147D01*
X140401715Y-62361054D01*
X140970000Y-62474093D01*
X141538285Y-62361054D01*
X142020054Y-62039147D01*
X142240000Y-61709974D01*
X142459946Y-62039147D01*
X142941715Y-62361054D01*
X143510000Y-62474093D01*
X144078285Y-62361054D01*
X144560054Y-62039147D01*
X144780000Y-61709974D01*
X144999946Y-62039147D01*
X145481715Y-62361054D01*
X146050000Y-62474093D01*
X146618285Y-62361054D01*
X147100054Y-62039147D01*
X147320000Y-61709974D01*
X147539946Y-62039147D01*
X148021715Y-62361054D01*
X148590000Y-62474093D01*
X149158285Y-62361054D01*
X149640054Y-62039147D01*
X149860000Y-61709974D01*
X150079946Y-62039147D01*
X150561715Y-62361054D01*
X151130000Y-62474093D01*
X151698285Y-62361054D01*
X152180054Y-62039147D01*
X152400000Y-61709974D01*
X152619946Y-62039147D01*
X153101715Y-62361054D01*
X153670000Y-62474093D01*
X154238285Y-62361054D01*
X154720054Y-62039147D01*
X154940000Y-61709974D01*
X155159946Y-62039147D01*
X155641715Y-62361054D01*
X156210000Y-62474093D01*
X156778285Y-62361054D01*
X157260054Y-62039147D01*
X157480000Y-61709974D01*
X157699946Y-62039147D01*
X158181715Y-62361054D01*
X158750000Y-62474093D01*
X159318285Y-62361054D01*
X159800054Y-62039147D01*
X160020000Y-61709974D01*
X160239946Y-62039147D01*
X160721715Y-62361054D01*
X161290000Y-62474093D01*
X161858285Y-62361054D01*
X162340054Y-62039147D01*
X162560000Y-61709974D01*
X162779946Y-62039147D01*
X163261715Y-62361054D01*
X163830000Y-62474093D01*
X164398285Y-62361054D01*
X164880054Y-62039147D01*
X165100000Y-61709974D01*
X165319946Y-62039147D01*
X165801715Y-62361054D01*
X166370000Y-62474093D01*
X166938285Y-62361054D01*
X167420054Y-62039147D01*
X167640000Y-61709974D01*
X167859946Y-62039147D01*
X168341715Y-62361054D01*
X168910000Y-62474093D01*
X169478285Y-62361054D01*
X169960054Y-62039147D01*
X170180000Y-61709974D01*
X170399946Y-62039147D01*
X170881715Y-62361054D01*
X171450000Y-62474093D01*
X172018285Y-62361054D01*
X172500054Y-62039147D01*
X172720000Y-61709974D01*
X172939946Y-62039147D01*
X173421715Y-62361054D01*
X173990000Y-62474093D01*
X174558285Y-62361054D01*
X175040054Y-62039147D01*
X175260000Y-61709974D01*
X175479946Y-62039147D01*
X175961715Y-62361054D01*
X176530000Y-62474093D01*
X177098285Y-62361054D01*
X177580054Y-62039147D01*
X177800000Y-61709974D01*
X178019946Y-62039147D01*
X178501715Y-62361054D01*
X179070000Y-62474093D01*
X179638285Y-62361054D01*
X180120054Y-62039147D01*
X180340000Y-61709974D01*
X180559946Y-62039147D01*
X181041715Y-62361054D01*
X181610000Y-62474093D01*
X182178285Y-62361054D01*
X182660054Y-62039147D01*
X182981961Y-61557378D01*
X183095000Y-60989093D01*
X183095000Y-60930907D01*
X182981961Y-60362622D01*
X182660054Y-59880853D01*
X182374422Y-59690000D01*
X182660054Y-59499147D01*
X182981961Y-59017378D01*
X183095000Y-58449093D01*
X183095000Y-58390907D01*
X182981961Y-57822622D01*
X182660054Y-57340853D01*
X182374418Y-57149997D01*
X182660054Y-56959142D01*
X182981961Y-56477373D01*
X183095000Y-55909088D01*
X183095000Y-55850902D01*
X182981961Y-55282617D01*
X182660054Y-54800848D01*
X182374422Y-54609995D01*
X182660054Y-54419142D01*
X182981961Y-53937373D01*
X183095000Y-53369088D01*
X183095000Y-53310902D01*
X182981961Y-52742617D01*
X182660054Y-52260848D01*
X182178285Y-51938941D01*
X181610000Y-51825902D01*
X181041715Y-51938941D01*
X180559946Y-52260848D01*
X180340000Y-52590021D01*
X180120054Y-52260848D01*
X179638285Y-51938941D01*
X179070000Y-51825902D01*
X178501715Y-51938941D01*
X178019946Y-52260848D01*
X177800000Y-52590021D01*
X177580054Y-52260848D01*
X177098285Y-51938941D01*
X176530000Y-51825902D01*
X175961715Y-51938941D01*
X175479946Y-52260848D01*
X175260000Y-52590021D01*
X175040054Y-52260848D01*
X174558285Y-51938941D01*
X173990000Y-51825902D01*
X173421715Y-51938941D01*
X172939946Y-52260848D01*
X172720000Y-52590021D01*
X172500054Y-52260848D01*
X172018285Y-51938941D01*
X171450000Y-51825902D01*
X170881715Y-51938941D01*
X170399946Y-52260848D01*
X170180000Y-52590021D01*
X169960054Y-52260848D01*
X169478285Y-51938941D01*
X168910000Y-51825902D01*
X168341715Y-51938941D01*
X167859946Y-52260848D01*
X167640000Y-52590021D01*
X167420054Y-52260848D01*
X166938285Y-51938941D01*
X166370000Y-51825902D01*
X165801715Y-51938941D01*
X165319946Y-52260848D01*
X165100000Y-52590021D01*
X164880054Y-52260848D01*
X164398285Y-51938941D01*
X163830000Y-51825902D01*
X163261715Y-51938941D01*
X163230526Y-51959781D01*
X163352192Y-51838327D01*
X163494838Y-51494799D01*
X163495162Y-51122833D01*
X163353117Y-50779057D01*
X163090327Y-50515808D01*
X162746799Y-50373162D01*
X162374833Y-50372838D01*
X162031057Y-50514883D01*
X161767808Y-50777673D01*
X161671000Y-51010811D01*
X161671000Y-49403000D01*
X188338146Y-49403000D01*
X188285442Y-51774699D01*
X187957679Y-51446364D01*
X187136519Y-51105389D01*
X186247381Y-51104613D01*
X185425628Y-51444155D01*
X184796364Y-52072321D01*
X184455389Y-52893481D01*
X184454613Y-53782619D01*
X184794155Y-54604372D01*
X185422321Y-55233636D01*
X186243481Y-55574611D01*
X187132619Y-55575387D01*
X187954372Y-55235845D01*
X188214293Y-54976377D01*
X187833031Y-72133178D01*
X187841937Y-72182799D01*
X187869446Y-72225045D01*
X187911224Y-72253260D01*
X187960000Y-72263000D01*
X192913000Y-72263000D01*
X192913000Y-142621000D01*
X161671000Y-142621000D01*
X161671000Y-140208000D01*
X161660994Y-140158590D01*
X161632553Y-140116965D01*
X161590159Y-140089685D01*
X161544000Y-140081000D01*
X139192000Y-140081000D01*
X139142590Y-140091006D01*
X139100965Y-140119447D01*
X139073685Y-140161841D01*
X139065000Y-140208000D01*
X139065000Y-142621000D01*
X105283000Y-142621000D01*
X105283000Y-139512619D01*
X106984613Y-139512619D01*
X107324155Y-140334372D01*
X107952321Y-140963636D01*
X108773481Y-141304611D01*
X109662619Y-141305387D01*
X110484372Y-140965845D01*
X111113636Y-140337679D01*
X111454611Y-139516519D01*
X111454614Y-139512619D01*
X186994613Y-139512619D01*
X187334155Y-140334372D01*
X187962321Y-140963636D01*
X188783481Y-141304611D01*
X189672619Y-141305387D01*
X190494372Y-140965845D01*
X191123636Y-140337679D01*
X191464611Y-139516519D01*
X191465387Y-138627381D01*
X191125845Y-137805628D01*
X190497679Y-137176364D01*
X189676519Y-136835389D01*
X188787381Y-136834613D01*
X187965628Y-137174155D01*
X187336364Y-137802321D01*
X186995389Y-138623481D01*
X186994613Y-139512619D01*
X111454614Y-139512619D01*
X111455387Y-138627381D01*
X111115845Y-137805628D01*
X110487679Y-137176364D01*
X109666519Y-136835389D01*
X108777381Y-136834613D01*
X107955628Y-137174155D01*
X107326364Y-137802321D01*
X106985389Y-138623481D01*
X106984613Y-139512619D01*
X105283000Y-139512619D01*
X105283000Y-117787167D01*
X122407238Y-117787167D01*
X122549283Y-118130943D01*
X122812073Y-118394192D01*
X123155601Y-118536838D01*
X123527567Y-118537162D01*
X123871343Y-118395117D01*
X124134592Y-118132327D01*
X124277238Y-117788799D01*
X124277562Y-117416833D01*
X124135517Y-117073057D01*
X123872727Y-116809808D01*
X123529199Y-116667162D01*
X123157233Y-116666838D01*
X122813457Y-116808883D01*
X122550208Y-117071673D01*
X122407562Y-117415201D01*
X122407238Y-117787167D01*
X105283000Y-117787167D01*
X105283000Y-112434000D01*
X110770560Y-112434000D01*
X110770560Y-114134000D01*
X110814838Y-114369317D01*
X110953910Y-114585441D01*
X111166110Y-114730431D01*
X111418000Y-114781440D01*
X113118000Y-114781440D01*
X113353317Y-114737162D01*
X113569441Y-114598090D01*
X113714431Y-114385890D01*
X113765440Y-114134000D01*
X113765440Y-112434000D01*
X113721162Y-112198683D01*
X113582090Y-111982559D01*
X113369890Y-111837569D01*
X113261893Y-111815699D01*
X113539645Y-111510924D01*
X113709476Y-111100890D01*
X113588155Y-110871000D01*
X112395000Y-110871000D01*
X112395000Y-110891000D01*
X112141000Y-110891000D01*
X112141000Y-110871000D01*
X110947845Y-110871000D01*
X110826524Y-111100890D01*
X110996355Y-111510924D01*
X111272501Y-111813937D01*
X111182683Y-111830838D01*
X110966559Y-111969910D01*
X110821569Y-112182110D01*
X110770560Y-112434000D01*
X105283000Y-112434000D01*
X105283000Y-110387110D01*
X110826524Y-110387110D01*
X110947845Y-110617000D01*
X112141000Y-110617000D01*
X112141000Y-109423181D01*
X112395000Y-109423181D01*
X112395000Y-110617000D01*
X113588155Y-110617000D01*
X113709476Y-110387110D01*
X113539645Y-109977076D01*
X113149358Y-109548817D01*
X112624892Y-109302514D01*
X112395000Y-109423181D01*
X112141000Y-109423181D01*
X111911108Y-109302514D01*
X111386642Y-109548817D01*
X110996355Y-109977076D01*
X110826524Y-110387110D01*
X105283000Y-110387110D01*
X105283000Y-107823000D01*
X107188000Y-107823000D01*
X107237410Y-107812994D01*
X107279035Y-107784553D01*
X107306315Y-107742159D01*
X107315000Y-107696000D01*
X107315000Y-85529167D01*
X149940838Y-85529167D01*
X150082883Y-85872943D01*
X150345673Y-86136192D01*
X150689201Y-86278838D01*
X150736077Y-86278879D01*
X150846599Y-86389401D01*
X151093161Y-86554148D01*
X151384000Y-86612000D01*
X154377537Y-86612000D01*
X154409673Y-86644192D01*
X154753201Y-86786838D01*
X155125167Y-86787162D01*
X155468943Y-86645117D01*
X155732192Y-86382327D01*
X155874838Y-86038799D01*
X155875162Y-85666833D01*
X155733117Y-85323057D01*
X155470327Y-85059808D01*
X155126799Y-84917162D01*
X154754833Y-84916838D01*
X154411057Y-85058883D01*
X154377882Y-85092000D01*
X151783547Y-85092000D01*
X151669117Y-84815057D01*
X151406327Y-84551808D01*
X151062799Y-84409162D01*
X150690833Y-84408838D01*
X150347057Y-84550883D01*
X150083808Y-84813673D01*
X149941162Y-85157201D01*
X149940838Y-85529167D01*
X107315000Y-85529167D01*
X107315000Y-84836000D01*
X107304994Y-84786590D01*
X107276553Y-84744965D01*
X107234159Y-84717685D01*
X107188000Y-84709000D01*
X105283000Y-84709000D01*
X105283000Y-53782619D01*
X110794613Y-53782619D01*
X111134155Y-54604372D01*
X111762321Y-55233636D01*
X112583481Y-55574611D01*
X113472619Y-55575387D01*
X114294372Y-55235845D01*
X114923636Y-54607679D01*
X115264611Y-53786519D01*
X115265387Y-52897381D01*
X114925845Y-52075628D01*
X114297679Y-51446364D01*
X113476519Y-51105389D01*
X112587381Y-51104613D01*
X111765628Y-51444155D01*
X111136364Y-52072321D01*
X110795389Y-52893481D01*
X110794613Y-53782619D01*
X105283000Y-53782619D01*
X105283000Y-50985167D01*
X128604838Y-50985167D01*
X128746883Y-51328943D01*
X129009673Y-51592192D01*
X129353201Y-51734838D01*
X129725167Y-51735162D01*
X130068943Y-51593117D01*
X130332192Y-51330327D01*
X130474838Y-50986799D01*
X130475162Y-50614833D01*
X130333117Y-50271057D01*
X130070327Y-50007808D01*
X129726799Y-49865162D01*
X129354833Y-49864838D01*
X129011057Y-50006883D01*
X128747808Y-50269673D01*
X128605162Y-50613201D01*
X128604838Y-50985167D01*
X105283000Y-50985167D01*
X105283000Y-49403000D01*
X138557000Y-49403000D01*
X138557000Y-51056000D01*
G36*
X148717000Y-53212995D02*
X148737000Y-53212995D01*
X148737000Y-53466995D01*
X148717000Y-53466995D01*
X148717000Y-55752995D01*
X148737000Y-55752995D01*
X148737000Y-56006995D01*
X148717000Y-56006995D01*
X148717000Y-56026995D01*
X148463000Y-56026995D01*
X148463000Y-56006995D01*
X148443000Y-56006995D01*
X148443000Y-55752995D01*
X148463000Y-55752995D01*
X148463000Y-53466995D01*
X148443000Y-53466995D01*
X148443000Y-53212995D01*
X148463000Y-53212995D01*
X148463000Y-53192995D01*
X148717000Y-53192995D01*
X148717000Y-53212995D01*
X148717000Y-53212995D01*
G37*
X148717000Y-53212995D02*
X148737000Y-53212995D01*
X148737000Y-53466995D01*
X148717000Y-53466995D01*
X148717000Y-55752995D01*
X148737000Y-55752995D01*
X148737000Y-56006995D01*
X148717000Y-56006995D01*
X148717000Y-56026995D01*
X148463000Y-56026995D01*
X148463000Y-56006995D01*
X148443000Y-56006995D01*
X148443000Y-55752995D01*
X148463000Y-55752995D01*
X148463000Y-53466995D01*
X148443000Y-53466995D01*
X148443000Y-53212995D01*
X148463000Y-53212995D01*
X148463000Y-53192995D01*
X148717000Y-53192995D01*
X148717000Y-53212995D01*
M02*
